<svg xmlns="http://www.w3.org/2000/svg" xmlns:xlink="http://www.w3.org/1999/xlink" viewBox="0 0 639.11 600.85">
  <defs>
    <style>
      .cls-1 {
        isolation: isolate;
      }

      .cls-2 {
        fill: #3c291c;
      }

      .cls-3 {
        fill: #fcc7a7;
      }

      .cls-11, .cls-12, .cls-13, .cls-18, .cls-19, .cls-21, .cls-23, .cls-24, .cls-27, .cls-28, .cls-30, .cls-31, .cls-32, .cls-33, .cls-34, .cls-36, .cls-37, .cls-38, .cls-39, .cls-4, .cls-41, .cls-5, .cls-6, .cls-9 {
        opacity: 0.5;
      }

      .cls-11, .cls-12, .cls-13, .cls-17, .cls-18, .cls-19, .cls-21, .cls-22, .cls-23, .cls-24, .cls-25, .cls-27, .cls-28, .cls-30, .cls-31, .cls-32, .cls-33, .cls-34, .cls-36, .cls-37, .cls-38, .cls-39, .cls-4, .cls-41, .cls-44, .cls-5, .cls-6, .cls-9 {
        mix-blend-mode: multiply;
      }

      .cls-4 {
        fill: url(#radial-gradient);
      }

      .cls-17, .cls-5 {
        fill: #edc3ab;
      }

      .cls-6 {
        fill: url(#linear-gradient);
      }

      .cls-7 {
        fill: url(#linear-gradient-2);
      }

      .cls-8 {
        fill: #342318;
      }

      .cls-9 {
        fill: url(#radial-gradient-2);
      }

      .cls-10, .cls-14, .cls-29, .cls-40 {
        opacity: 0.3;
      }

      .cls-10, .cls-14 {
        mix-blend-mode: overlay;
      }

      .cls-10 {
        fill: url(#linear-gradient-3);
      }

      .cls-11 {
        fill: url(#linear-gradient-4);
      }

      .cls-12 {
        fill: url(#linear-gradient-5);
      }

      .cls-13 {
        fill: url(#linear-gradient-6);
      }

      .cls-14 {
        fill: none;
      }

      .cls-15 {
        fill: #f1c3a7;
      }

      .cls-16 {
        fill: #f6dad5;
      }

      .cls-18, .cls-42, .cls-43, .cls-44 {
        fill: #354866;
      }

      .cls-19 {
        fill: url(#linear-gradient-7);
      }

      .cls-20 {
        fill: #fff;
      }

      .cls-21 {
        fill: url(#radial-gradient-4);
      }

      .cls-22 {
        fill: #aecf71;
      }

      .cls-22, .cls-25 {
        opacity: 0.9;
      }

      .cls-23 {
        fill: url(#radial-gradient-5);
      }

      .cls-24 {
        fill: url(#radial-gradient-6);
      }

      .cls-25 {
        fill: #11100f;
      }

      .cls-26, .cls-29, .cls-35, .cls-40 {
        mix-blend-mode: soft-light;
      }

      .cls-26 {
        fill: url(#linear-gradient-8);
      }

      .cls-27 {
        fill: url(#linear-gradient-9);
      }

      .cls-28 {
        fill: url(#linear-gradient-10);
      }

      .cls-29 {
        fill: url(#radial-gradient-7);
      }

      .cls-30 {
        fill: url(#linear-gradient-11);
      }

      .cls-31 {
        fill: url(#linear-gradient-12);
      }

      .cls-32 {
        fill: url(#radial-gradient-8);
      }

      .cls-33 {
        fill: url(#radial-gradient-9);
      }

      .cls-34 {
        fill: url(#radial-gradient-10);
      }

      .cls-35 {
        fill: url(#linear-gradient-13);
      }

      .cls-36 {
        fill: #fac0a1;
      }

      .cls-37 {
        fill: url(#linear-gradient-14);
      }

      .cls-38 {
        fill: url(#linear-gradient-15);
      }

      .cls-39 {
        fill: url(#linear-gradient-16);
      }

      .cls-40 {
        fill: url(#radial-gradient-11);
      }

      .cls-41 {
        fill: url(#linear-gradient-17);
      }

      .cls-42 {
        opacity: 0.2;
        mix-blend-mode: hard-light;
      }
    </style>
    <radialGradient id="radial-gradient" cx="462.16" cy="244.08" r="102.24" gradientTransform="translate(-312.6 -96.14) scale(1.4 1.39)" gradientUnits="userSpaceOnUse">
      <stop offset="0" stop-color="#be1e2d" stop-opacity="0"/>
      <stop offset="0.07" stop-color="#bf1e2d" stop-opacity="0.02"/>
      <stop offset="0.15" stop-color="#c21e2c" stop-opacity="0.09"/>
      <stop offset="0.25" stop-color="#c71e2b" stop-opacity="0.2"/>
      <stop offset="0.35" stop-color="#cf1d2a" stop-opacity="0.35"/>
      <stop offset="0.46" stop-color="#d81d28" stop-opacity="0.55"/>
      <stop offset="0.57" stop-color="#e31c26" stop-opacity="0.78"/>
      <stop offset="0.66" stop-color="#ed1c24"/>
    </radialGradient>
    <linearGradient id="linear-gradient" x1="334.17" y1="247.04" x2="367.61" y2="149.21" gradientUnits="userSpaceOnUse">
      <stop offset="0" stop-color="#fff" stop-opacity="0"/>
      <stop offset="0.45" stop-color="#f9e0d3" stop-opacity="0.44"/>
      <stop offset="1" stop-color="#f1b99c"/>
    </linearGradient>
    <linearGradient id="linear-gradient-2" x1="214.82" y1="174.81" x2="215.29" y2="173.99" gradientUnits="userSpaceOnUse">
      <stop offset="0" stop-color="#fff" stop-opacity="0"/>
      <stop offset="0.17" stop-color="#fff" stop-opacity="0.01"/>
      <stop offset="0.3" stop-color="#fff" stop-opacity="0.05"/>
      <stop offset="0.41" stop-color="#fff" stop-opacity="0.11"/>
      <stop offset="0.51" stop-color="#fff" stop-opacity="0.2"/>
      <stop offset="0.61" stop-color="#fff" stop-opacity="0.32"/>
      <stop offset="0.71" stop-color="#fff" stop-opacity="0.46"/>
      <stop offset="0.8" stop-color="#fff" stop-opacity="0.63"/>
      <stop offset="0.88" stop-color="#fff" stop-opacity="0.82"/>
      <stop offset="0.96" stop-color="#fff"/>
    </linearGradient>
    <radialGradient id="radial-gradient-2" cx="479.64" cy="228.22" r="114.16" gradientTransform="translate(-312.6 -72.41) scale(1.4 1.32)" gradientUnits="userSpaceOnUse">
      <stop offset="0" stop-color="#fff" stop-opacity="0"/>
      <stop offset="0.16" stop-color="#fffefe" stop-opacity="0.01"/>
      <stop offset="0.29" stop-color="#fefbfa" stop-opacity="0.05"/>
      <stop offset="0.4" stop-color="#fdf6f3" stop-opacity="0.12"/>
      <stop offset="0.51" stop-color="#fcefe9" stop-opacity="0.22"/>
      <stop offset="0.62" stop-color="#fae6dc" stop-opacity="0.35"/>
      <stop offset="0.72" stop-color="#f8dccd" stop-opacity="0.51"/>
      <stop offset="0.82" stop-color="#f5cfbb" stop-opacity="0.69"/>
      <stop offset="0.92" stop-color="#f2c0a6" stop-opacity="0.9"/>
      <stop offset="0.96" stop-color="#f1b99c"/>
    </radialGradient>
    <linearGradient id="linear-gradient-3" x1="329.43" y1="253.95" x2="406.63" y2="120.25" xlink:href="#linear-gradient-2"/>
    <linearGradient id="linear-gradient-4" x1="342.48" y1="94.16" x2="300.91" y2="161.23" xlink:href="#linear-gradient"/>
    <linearGradient id="linear-gradient-5" x1="374.58" y1="193.46" x2="347.12" y2="237.76" gradientTransform="translate(-4.97 -57.42) rotate(1.79)" xlink:href="#linear-gradient"/>
    <linearGradient id="linear-gradient-6" x1="348.7" y1="201.47" x2="329.23" y2="232.88" gradientTransform="translate(-4.97 -57.42) rotate(1.79)" xlink:href="#linear-gradient"/>
    <linearGradient id="linear-gradient-7" x1="375.21" y1="246.97" x2="375.21" y2="260.39" xlink:href="#linear-gradient"/>
    <radialGradient id="radial-gradient-4" cx="376.44" cy="237.25" r="23.7" gradientTransform="translate(0 -37.31) scale(1 1.16)" gradientUnits="userSpaceOnUse">
      <stop offset="0" stop-color="#fff" stop-opacity="0"/>
      <stop offset="0.26" stop-color="#fffefe" stop-opacity="0.01"/>
      <stop offset="0.39" stop-color="#fefcfb" stop-opacity="0.04"/>
      <stop offset="0.49" stop-color="#fef8f5" stop-opacity="0.1"/>
      <stop offset="0.59" stop-color="#fdf3ed" stop-opacity="0.18"/>
      <stop offset="0.67" stop-color="#fbebe3" stop-opacity="0.28"/>
      <stop offset="0.74" stop-color="#f9e3d7" stop-opacity="0.41"/>
      <stop offset="0.81" stop-color="#f7d8c8" stop-opacity="0.56"/>
      <stop offset="0.88" stop-color="#f5ccb6" stop-opacity="0.73"/>
      <stop offset="0.94" stop-color="#f2bea3" stop-opacity="0.92"/>
      <stop offset="0.96" stop-color="#f1b99c"/>
    </radialGradient>
    <radialGradient id="radial-gradient-5" cx="375.81" cy="238.16" r="10.32" gradientTransform="translate(0 -37.45) scale(1 1.16)" gradientUnits="userSpaceOnUse">
      <stop offset="0" stop-color="#fff" stop-opacity="0"/>
      <stop offset="0.26" stop-color="#feffff" stop-opacity="0.01"/>
      <stop offset="0.4" stop-color="#fafdfe" stop-opacity="0.04"/>
      <stop offset="0.5" stop-color="#f3fafc" stop-opacity="0.1"/>
      <stop offset="0.6" stop-color="#e9f6fa" stop-opacity="0.19"/>
      <stop offset="0.68" stop-color="#dcf1f7" stop-opacity="0.3"/>
      <stop offset="0.75" stop-color="#ccebf3" stop-opacity="0.43"/>
      <stop offset="0.82" stop-color="#b9e4ee" stop-opacity="0.59"/>
      <stop offset="0.89" stop-color="#a3dbe9" stop-opacity="0.78"/>
      <stop offset="0.95" stop-color="#8ad2e4" stop-opacity="0.98"/>
      <stop offset="0.96" stop-color="#88d1e3"/>
    </radialGradient>
    <radialGradient id="radial-gradient-6" cx="375.21" cy="238.77" r="7.03" gradientTransform="matrix(1, 0, 0, 1, 0, 0)" xlink:href="#radial-gradient-5"/>
    <linearGradient id="linear-gradient-8" x1="374.84" y1="239.58" x2="378.36" y2="231.86" gradientUnits="userSpaceOnUse">
      <stop offset="0" stop-color="#fff" stop-opacity="0"/>
      <stop offset="0.18" stop-color="#fff" stop-opacity="0.25"/>
      <stop offset="0.39" stop-color="#fff" stop-opacity="0.52"/>
      <stop offset="0.58" stop-color="#fff" stop-opacity="0.72"/>
      <stop offset="0.74" stop-color="#fff" stop-opacity="0.87"/>
      <stop offset="0.87" stop-color="#fff" stop-opacity="0.97"/>
      <stop offset="0.96" stop-color="#fff"/>
    </linearGradient>
    <linearGradient id="linear-gradient-9" x1="3257.18" y1="-159.14" x2="3260.21" y2="-135.29" gradientTransform="matrix(-0.69, 0.72, 0.72, 0.69, 2741.79, -2030.32)" gradientUnits="userSpaceOnUse">
      <stop offset="0" stop-color="#fff" stop-opacity="0"/>
      <stop offset="0.1" stop-color="#fefaf8" stop-opacity="0.07"/>
      <stop offset="0.29" stop-color="#fceee7" stop-opacity="0.25"/>
      <stop offset="0.56" stop-color="#f8daca" stop-opacity="0.53"/>
      <stop offset="0.89" stop-color="#f2bea4" stop-opacity="0.92"/>
      <stop offset="0.96" stop-color="#f1b99c"/>
    </linearGradient>
    <linearGradient id="linear-gradient-10" x1="3258.53" y1="-154.85" x2="3260.99" y2="-145.77" gradientTransform="matrix(-0.69, 0.72, 0.72, 0.69, 2741.79, -2030.32)" xlink:href="#radial-gradient-2"/>
    <radialGradient id="radial-gradient-7" cx="3262.76" cy="-131.47" r="26.44" gradientTransform="matrix(-0.71, -0.7, -1.18, 1.19, 2539.3, 2681.73)" gradientUnits="userSpaceOnUse">
      <stop offset="0" stop-color="#fff" stop-opacity="0"/>
      <stop offset="0.23" stop-color="#fff" stop-opacity="0.01"/>
      <stop offset="0.36" stop-color="#fff" stop-opacity="0.04"/>
      <stop offset="0.47" stop-color="#fff" stop-opacity="0.1"/>
      <stop offset="0.56" stop-color="#fff" stop-opacity="0.17"/>
      <stop offset="0.64" stop-color="#fff" stop-opacity="0.27"/>
      <stop offset="0.72" stop-color="#fff" stop-opacity="0.4"/>
      <stop offset="0.79" stop-color="#fff" stop-opacity="0.55"/>
      <stop offset="0.86" stop-color="#fff" stop-opacity="0.72"/>
      <stop offset="0.93" stop-color="#fff" stop-opacity="0.91"/>
      <stop offset="0.96" stop-color="#fff"/>
    </radialGradient>
    <linearGradient id="linear-gradient-11" x1="332.03" y1="213.41" x2="331.37" y2="201.58" xlink:href="#linear-gradient"/>
    <linearGradient id="linear-gradient-12" x1="281.55" y1="248.85" x2="281.55" y2="264.23" xlink:href="#linear-gradient"/>
    <radialGradient id="radial-gradient-8" cx="282.96" cy="237.7" r="27.17" gradientTransform="translate(0 -37.38) scale(1 1.16)" xlink:href="#radial-gradient-4"/>
    <radialGradient id="radial-gradient-9" cx="282.17" cy="238.84" r="11.83" gradientTransform="translate(0 -37.56) scale(1 1.16)" xlink:href="#radial-gradient-5"/>
    <radialGradient id="radial-gradient-10" cx="281.56" cy="239.45" r="8.06" gradientTransform="matrix(1, 0, 0, 1, 0, 0)" xlink:href="#radial-gradient-5"/>
    <linearGradient id="linear-gradient-13" x1="281.12" y1="240.37" x2="285.16" y2="231.53" xlink:href="#linear-gradient-8"/>
    <linearGradient id="linear-gradient-14" x1="2302.79" y1="-441.59" x2="2302.04" y2="-455.16" gradientTransform="matrix(-0.8, 0.6, 0.6, 0.8, 2438.68, -810.8)" xlink:href="#linear-gradient"/>
    <linearGradient id="linear-gradient-15" x1="3284.76" y1="-186.66" x2="3287.79" y2="-162.81" gradientTransform="translate(-2118.01 -2030.32) rotate(46)" xlink:href="#linear-gradient-9"/>
    <linearGradient id="linear-gradient-16" x1="3286.11" y1="-182.37" x2="3288.57" y2="-173.28" gradientTransform="translate(-2118.01 -2030.32) rotate(46)" xlink:href="#radial-gradient-2"/>
    <radialGradient id="radial-gradient-11" cx="3290.34" cy="-158.99" r="26.44" gradientTransform="matrix(0.71, -0.7, 1.18, 1.19, -1863.59, 2734.64)" xlink:href="#radial-gradient-7"/>
    <linearGradient id="linear-gradient-17" x1="369.74" y1="201.24" x2="318.41" y2="247.81" xlink:href="#linear-gradient"/>
  </defs>
  <g class="cls-1">
    <g id="Layer_1" data-name="Layer 1">
      <path class="cls-2" d="M317.73,454.23q-.89-39.72-1.76-79.42c0-2-.25-4.22.53-5.92s2.62-3.79,4.1-3.87,3.69,1.78,4.56,3.35c1,1.73,1,4.1,1,6.21q.89,34.29,1.61,68.58c.1,4.46,0,8.94,0,12.36,3.77,2,6.59,3.16,8.93,4.93,2.87,2.17,2.93,5,1.14,7.9a5.7,5.7,0,0,0-.72,3.65c1.27,7.37,2.82,14.69,4.09,22.05.7,4.09-1,7.45-4.33,9.75-2.63,1.84-5.44,4-8.46,4.6a124.18,124.18,0,0,1-21.77,2.82,48,48,0,0,1-23.84-5.49c-5.77-3.08-9.61-9.11-8.56-16.35,1.88-12.86,13.23-20.51,27.5-18.12a4,4,0,0,0,4.68-4.32c-.56-5.23,1.52-8.52,6.44-10,1.43-.44,2.92-.65,4.8-1.06C317.73,455.19,317.74,454.71,317.73,454.23ZM330,470.33l-.11-1c1.34-.47,2.7-.89,4-1.43,3.4-1.38,3.87-3.86,1-6.16-1.7-1.35-3.79-2.19-6.16-3.52-.39,3.73.22,7.26-4.61,7.61-6.14.44-5-4.62-6.45-7.95-3.93.64-7.91,1.74-8.81,5.77-.38,1.71,2.38,4.13,4,6.73-.92,1.76-5.8-3.62-5.78,2.13,2.05,1.2,4.35,2.39,6.48,3.83s4.05,3.12,6.07,4.7l-1.36,1.51c-1-.77-1.95-1.53-2.91-2.31-7.42-6.07-15.83-8.51-25.19-6.08-10.42,2.71-16.3,15-12.11,24.79a5.07,5.07,0,0,0,2.5,2.52c6.12,2.35,12.17,5.28,18.53,6.54a56.61,56.61,0,0,0,26.37-1,33.89,33.89,0,0,0,6.91-2.79c6.44-3.46,7.4-5.21,6.33-12.35s-2.41-14-3.63-21Z"/>
      <path class="cls-2" d="M495.42,344c6.32,4.33,11.09,8.87,8.08,17.06-.27.75.21,1.86.51,2.75,3.15,9.51,2.14,18.83-1.57,27.9-3,7.24-6.88,9.39-14.95,9-1.05-.05-2.13.58-3.2.85-8.62,2.12-16.46-1.93-24.31-4-3.24-.86-6.08-5.49-10.18-7a3.13,3.13,0,0,1-1.56-1.78c-1.71-5-3.76-10-4.82-15.21-1-4.89,1.84-8.84,5.56-11.67a86.26,86.26,0,0,1,11.5-7.1c2.19-1.18,3.37-2.07,3.06-5-.54-5.08,3.67-8.56,10.25-9.3,8.63-1,8.64-1,9.39-9.9,1.94-23-5.94-41.69-25.48-54.44-5.38-3.52-12.07-5.17-18.32-7.17-5-1.6-8.08-4.13-7.28-7.51,1.11-4.69,4.8-5.92,9-5.39a61.22,61.22,0,0,1,11.8,2.44c34.84,11.65,53.42,47.19,43.29,82.53C495.92,342,495.7,342.89,495.42,344ZM457.89,390.5c1.44,6.53,3.53,7.31,15.32,5.67,1.4,5.51,5.64,3.67,9.33,3.32,1.69-.16,3.46-1.06,5-.75,4.9,1,8.27-1.09,10.54-5,5.44-9.41,5.74-19.38,3.13-29.37l-7.22.88c9.82-7.1,10-13.23.32-18.65-2.83,3.65-6.16,7.42-11.18,4.58-2.34-1.32-3.57-4.63-5.31-7l1-1.38c-4.25.11-9.43-.2-11.42,4-1.22,2.56,1,6.76,1.61,9.88-1.13-.13-3.9-1.34-5.69-.48a71.36,71.36,0,0,0-12.63,8c-3.15,2.42-5.23,5.86-4.3,10.15.86,4,5.58,6.84,3.4,11.93-.24.55,2.35,2.65,3.91,3.55C454.91,390.39,456.53,390.27,457.89,390.5Z"/>
      <path class="cls-2" d="M162.25,256.56a70.47,70.47,0,0,1-7.78-.79c-4.45-1-7.76-3.13-7.65-8.45a3.62,3.62,0,0,0-1.39-2.81c-6.37-3.51-8.18-9.57-8.92-16-1-8.55-.69-16.87,7-22.87a3,3,0,0,0,.92-1.18c3.93-9.54,12.61-12.35,22.6-15.95,0-3.93-.13-8.73.05-13.52a65.68,65.68,0,0,1,1.07-10.49c1.09-5.4,4.84-7.81,10.31-7.19,5.65.65,5.64,4.82,5.65,9,0,6.86,0,13.73,0,20.95a17.11,17.11,0,0,0,2.32.24c9.23.06,12.64,3,12.86,12.19.23,9.64-.74,19.14-6.34,27.52-.53.79-1.21,1.88-1.06,2.68,1.75,9.06-3.85,14.15-10.24,18.5-2.79,1.9-3.61,3.84-3.25,7,.8,7,1.26,14,2,21.07.75,7.42,1.71,8.86,9,8.24,11.66-1,23.24-3,34.85-4.53,2.33-.32,4.64-.87,7-1,3.09-.14,5.2,1.39,5.59,4.58.34,2.77-.24,4.75-3.24,6.49-16,9.29-33.83,11.13-51.6,13-11.83,1.21-15.5-2.26-16.62-14.05-.86-9-1.51-18.07-2.3-27.1C162.84,260.21,162.51,258.42,162.25,256.56Zm-10.44-50.49c-7.88,1.54-11.09,5.81-11.92,12.08-.9,6.76-.67,13.38,2.69,19.6,3.83,7.11,11.63,4.52,17.63,6.33l-.31,1.47-10.57.74c1.2,5.28,2.82,6.87,8.19,6.75,11-.26,20.67-4.23,28.06-12.63,1.72-1.95,2.46-4.78,4.18-8.3-2.1.56-2.68.77-3.28.86s-1.47.12-2.88.22a22.27,22.27,0,0,1,2.14-2.92c9.63-8.92,10.67-20.5,9.75-32.5-.18-2.29-2-5.92-3.74-6.37a22.48,22.48,0,0,0-19.57,3.7c-1.3,1-1.73,3.9-1.47,5.76.12.86,2.85,1.62,4.48,1.92a32.05,32.05,0,0,0,5.66.08c0,1.73-.06,3.18,0,4.62.3,5.47-2.44,9.7-7.35,12-5.59,2.65-10.9,5.9-16.58,8.28A11.52,11.52,0,0,1,149,228c-1.8-.72-2.73-3.65-4.05-5.6l1.34-1.3c2,3.86,4.84,7.57,8.89,4.37,2.57-2,3.55-6.09,5.62-9.92.49,2.67.9,4.92,1.29,7.12,6.62-.91,5.82-6.34,7.7-10.75.68,1.83,1.37,3.65,2.05,5.46,5.84-3.06,7.22-6.45,4.86-11.95-8.28.48-9.31-.88-9-11.84-6.47-1.73-9.76-.35-10.57,3.26l-10.45,5.59.59,1.55Zm28.44-31.21h.4a84.07,84.07,0,0,0-.11-9.53c-.19-1.68-1.73-4.71-2.17-4.62a21.23,21.23,0,0,0-6.8,2.8c-.73.45-.87,2.14-1,3.28-.54,7.18-1.11,14.36-1.32,21.55,0,.85,2.27,2.68,3.17,2.5,7.31-1.44,7.74-2.12,7.79-9.45C180.27,179.21,180.25,177,180.25,174.86Z"/>
      <path class="cls-2" d="M365.37,455.86c1.89.41,3.38.62,4.81,1.06,4.92,1.5,7,4.79,6.43,10a4,4,0,0,0,4.69,4.32c14.27-2.39,25.62,5.26,27.49,18.12,1.06,7.24-2.78,13.27-8.55,16.35a48.06,48.06,0,0,1-23.85,5.49,124.43,124.43,0,0,1-21.77-2.82c-3-.61-5.82-2.76-8.45-4.6-3.29-2.3-5-5.66-4.33-9.75,1.26-7.36,2.82-14.68,4.09-22.05a5.7,5.7,0,0,0-.72-3.65c-1.79-2.93-1.74-5.73,1.14-7.9,2.33-1.77,5.15-2.89,8.93-4.93,0-3.42-.09-7.9,0-12.36q.75-34.29,1.61-68.58c.05-2.11.08-4.48,1-6.21.87-1.57,3.06-3.43,4.56-3.35s3.35,2.21,4.11,3.87.57,3.93.53,5.92q-.84,39.7-1.76,79.42C365.37,454.71,365.37,455.19,365.37,455.86Zm-17.34,15c-1.23,7-2.59,14-3.64,21s-.11,8.89,6.34,12.35a33.89,33.89,0,0,0,6.91,2.79A56.57,56.57,0,0,0,384,508c6.37-1.26,12.41-4.19,18.54-6.54a5,5,0,0,0,2.49-2.52c4.2-9.81-1.69-22.08-12.1-24.79-9.36-2.43-17.77,0-25.19,6.08-1,.78-1.94,1.54-2.91,2.31L363.47,481c2-1.58,3.95-3.27,6.07-4.7S374,473.7,376,472.5c0-5.75-4.86-.37-5.78-2.13,1.66-2.6,4.42-5,4-6.73-.9-4-4.88-5.13-8.81-5.77-1.4,3.33-.32,8.39-6.46,7.95-4.83-.35-4.22-3.88-4.6-7.61-2.37,1.33-4.47,2.17-6.16,3.52-2.9,2.3-2.43,4.78,1,6.16,1.32.54,2.68,1,4,1.43l-.11,1Z"/>
      <path class="cls-3" d="M443.65,231.4c0,131.89-25,138.56-110.74,137.77-91.86,0-110.73-9.83-110.73-137.77,0-76.08,38.3-104.55,110.73-104.55C411.18,126.85,443.65,155.32,443.65,231.4Z"/>
      <path class="cls-4" d="M443.65,231.4c0,131.89-25,138.56-110.74,137.77-91.86,0-110.73-9.83-110.73-137.77,0-76.08,38.3-104.55,110.73-104.55C411.18,126.85,443.65,155.32,443.65,231.4Z"/>
      <g>
        <path class="cls-5" d="M248.82,281.19c0,.84-1.27,1.53-2.82,1.53s-2.83-.69-2.83-1.53,1.26-1.52,2.83-1.52S248.82,280.35,248.82,281.19Z"/>
        <path class="cls-5" d="M256.33,284.61c0,.54-.8,1-1.8,1s-1.8-.43-1.8-1,.8-1,1.8-1S256.33,284.08,256.33,284.61Z"/>
        <path class="cls-5" d="M241.64,286.78c0,.39-.57.7-1.29.7s-1.28-.31-1.28-.7.58-.69,1.28-.69S241.64,286.4,241.64,286.78Z"/>
        <path class="cls-5" d="M273,282.13c0,.38-.57.69-1.28.69s-1.28-.31-1.28-.69.57-.69,1.28-.69S273,281.75,273,282.13Z"/>
        <path class="cls-5" d="M254.56,290.53c0,.54-.82,1-1.83,1s-1.83-.45-1.83-1,.82-1,1.83-1S254.56,290,254.56,290.53Z"/>
      </g>
      <g>
        <path class="cls-5" d="M414.14,280.33c0,.84,1.27,1.53,2.83,1.53s2.83-.69,2.83-1.53-1.27-1.52-2.83-1.52S414.14,279.49,414.14,280.33Z"/>
        <path class="cls-5" d="M406.63,283.75c0,.54.81,1,1.81,1s1.8-.43,1.8-1-.81-1-1.8-1S406.63,283.22,406.63,283.75Z"/>
        <path class="cls-5" d="M421.33,285.92c0,.39.57.7,1.28.7s1.28-.31,1.28-.7-.57-.69-1.28-.69S421.33,285.54,421.33,285.92Z"/>
        <path class="cls-5" d="M390,281.27c0,.39.57.69,1.28.69s1.29-.3,1.29-.69-.58-.69-1.29-.69S390,280.89,390,281.27Z"/>
        <path class="cls-5" d="M408.41,289.67c0,.54.82,1,1.83,1s1.83-.45,1.83-1-.82-1-1.83-1S408.41,289.12,408.41,289.67Z"/>
      </g>
      <g>
        <path class="cls-6" d="M332.91,369.17c85.76.79,110.74-5.88,110.74-137.77,0-30.09-5.11-52.71-16.09-69.09-.35,0-.69,0-1,0a7.91,7.91,0,0,0,.08-1.46c-17-24-47.28-34-93.69-34-72.43,0-110.73,28.47-110.73,104.55C222.18,359.34,241.05,369.17,332.91,369.17Zm-88-65.75c-2.17.89-5,3.86-5,3.86s2.43-9.13-.69-8.72a55.14,55.14,0,0,0-5.75,1.1s-8.12-35-7-62.23c0,0-.15-23.7,11.1-39.12,0,0,31.88-23.07,17.9-27.87,0,0,13.73,4.44,27.26,4.44S354,163,373.62,165.69,402,178.14,402,178.14s14.16-2.07,19.57-8.3c0,0-2.3,5.64-5.31,7.42s2.6,12,13.22,18.08c0,0,6.66,15.72,7.49,33.07s-1.38,56.26-10.47,77.87c0,0,.82-2.57-.91-2.86s-3.19,1.93-3.19,1.93-2.3-4.45-6.14-4.45,0,2.52,0,2.52-14-5.78-19.46-5c0,0-22.9-7.85-45.79-8.45,0,0-16.34,6.23-42-.11,0,0-27.57,3.23-44,14.35,0,0-4.16-1.5-4.37-.75s1.25,2.52,1.25,2.52-7.5-3.26-8.74-1.92,1.24,3.26,1.24,3.26S247.14,302.52,245,303.42Z"/>
        <g>
          <path class="cls-7" d="M215.86,174.81a1.07,1.07,0,1,1-1-.82A.94.94,0,0,1,215.86,174.81Z"/>
          <path class="cls-8" d="M448.64,255s10.82-5.35,10-8.37-11.23,3.69-11.23,3.69,21.1-96.46-20.47-94c0,0,2.62-12.25-19.61-22.73s-63.3-17-93-16-98.72,13.56-78.57,36c0,0-16.49,6.72-23.56,18.87s5,77.88,5,77.88-3.74-3.71-5.62-2.25,1.88,5.15,1.88,5.15-12.7-5.15-14.78-3.45,15.2,6.78,15.2,6.78-5.42.4-4.17,2.33S218,260.8,218,260.8s-5.77,7.15-3.2,9.87a10.2,10.2,0,0,0,5.07,3.17s-6.25,11.31-3.75,13.14a43,43,0,0,1,6,6.29s-9.1,6.67-6.19,8a29.18,29.18,0,0,0,7.64,1.78s-9.09,4-7,7.12a26.62,26.62,0,0,0,5.62,5.68s-11.1,2.37-10,6.53,11.38,4.15,11.38,4.15-6.22,8.69-1.45,12.25,11.79,3.76,11.79,3.76-8.12,6.92-5.35,8.69S239.11,353,239.11,353s-2.19,13.05,6.68,14.63,24.13,1.58,24.13,1.58,1.27,6.33,8.82,6.33A144.24,144.24,0,0,0,296.56,374s8.94,6,16.19,6.32,18.51-3.85,18.51-3.85a37.41,37.41,0,0,0,10.32,3.87c5.07.87,5.29-4.17,5.29-4.17s8.82,5,12.63,4.27-1.84-5.75-1.84-5.75,16.73,4.15,28.25,1.78,11.53-9.19,11.53-9.19,8.47,2.67,16.51.89,5.89-9.79,5.89-9.79,6.32.3,10.9-3-3.81-5.93-3.81-5.93,15.05-3.27,19.22-13.35-3.34-14.53-3.34-14.53,7.63-4.45,8.75-10.08-8.75.59-8.75.59,8.75-7.41,8.75-9.19-7.3-4.15-7.3-4.15,7.3-2.94,7.3-8.29-5.83-8.3-5.83-8.3,4.34-4.55,5.92-9.25-7.39-2.24-7.39-2.24,11.46-3.65,14.37-7.5-8.74-1.78-8.74-1.78,10.08-1.81,11.49-4S448.64,255,448.64,255Zm-21.71,45.28s.83-2.57-.9-2.86-3.2,1.93-3.2,1.93-2.3-4.44-6.14-4.44,0,2.51,0,2.51-14.05-5.78-19.46-5c0,0-22.89-7.86-45.79-8.45,0,0-16.33,6.22-42-.11,0,0-27.56,3.22-44,14.34,0,0-4.17-1.5-4.38-.75s1.25,2.53,1.25,2.53-7.49-3.26-8.74-1.93,1.25,3.26,1.25,3.26-7.31-4.76-9.48-3.86-5,3.86-5,3.86,2.44-9.13-.69-8.71a52.21,52.21,0,0,0-5.75,1.1s-8.12-35-7-62.23c0,0-.14-23.71,11.1-39.13,0,0,31.88-23.07,17.9-27.87,0,0,13.74,4.45,27.27,4.45s71.2-11.86,90.86-9.2,28.4,12.46,28.4,12.46,14.16-2.08,19.57-8.3c0,0-2.3,5.63-5.31,7.41s2.6,12,13.22,18.09c0,0,6.66,15.71,7.5,33.06S436,278.67,426.93,300.27Z"/>
          <path class="cls-9" d="M448.64,255s10.82-5.35,10-8.37-11.23,3.69-11.23,3.69,21.1-96.46-20.47-94c0,0,2.62-12.25-19.61-22.73s-63.3-17-93-16-98.72,13.56-78.57,36c0,0-16.49,6.72-23.56,18.87s5,77.88,5,77.88-3.74-3.71-5.62-2.25,1.88,5.15,1.88,5.15-12.7-5.15-14.78-3.45,15.2,6.78,15.2,6.78-5.42.4-4.17,2.33S218,260.8,218,260.8s-5.77,7.15-3.2,9.87a10.2,10.2,0,0,0,5.07,3.17s-6.25,11.31-3.75,13.14a43,43,0,0,1,6,6.29s-9.1,6.67-6.19,8a29.18,29.18,0,0,0,7.64,1.78s-9.09,4-7,7.12a26.62,26.62,0,0,0,5.62,5.68s-11.1,2.37-10,6.53,11.38,4.15,11.38,4.15-6.22,8.69-1.45,12.25,11.79,3.76,11.79,3.76-8.12,6.92-5.35,8.69S239.11,353,239.11,353s-2.19,13.05,6.68,14.63,24.13,1.58,24.13,1.58,1.27,6.33,8.82,6.33A144.24,144.24,0,0,0,296.56,374s8.94,6,16.19,6.32,18.51-3.85,18.51-3.85a37.41,37.41,0,0,0,10.32,3.87c5.07.87,5.29-4.17,5.29-4.17s8.82,5,12.63,4.27-1.84-5.75-1.84-5.75,16.73,4.15,28.25,1.78,11.53-9.19,11.53-9.19,8.47,2.67,16.51.89,5.89-9.79,5.89-9.79,6.32.3,10.9-3-3.81-5.93-3.81-5.93,15.05-3.27,19.22-13.35-3.34-14.53-3.34-14.53,7.63-4.45,8.75-10.08-8.75.59-8.75.59,8.75-7.41,8.75-9.19-7.3-4.15-7.3-4.15,7.3-2.94,7.3-8.29-5.83-8.3-5.83-8.3,4.34-4.55,5.92-9.25-7.39-2.24-7.39-2.24,11.46-3.65,14.37-7.5-8.74-1.78-8.74-1.78,10.08-1.81,11.49-4S448.64,255,448.64,255Zm-21.71,45.28s.83-2.57-.9-2.86-3.2,1.93-3.2,1.93-2.3-4.44-6.14-4.44,0,2.51,0,2.51-14.05-5.78-19.46-5c0,0-22.89-7.86-45.79-8.45,0,0-16.33,6.22-42-.11,0,0-27.56,3.22-44,14.34,0,0-4.17-1.5-4.38-.75s1.25,2.53,1.25,2.53-7.49-3.26-8.74-1.93,1.25,3.26,1.25,3.26-7.31-4.76-9.48-3.86-5,3.86-5,3.86,2.44-9.13-.69-8.71a52.21,52.21,0,0,0-5.75,1.1s-8.12-35-7-62.23c0,0-.14-23.71,11.1-39.13,0,0,31.88-23.07,17.9-27.87,0,0,13.74,4.45,27.27,4.45s71.2-11.86,90.86-9.2,28.4,12.46,28.4,12.46,14.16-2.08,19.57-8.3c0,0-2.3,5.63-5.31,7.41s2.6,12,13.22,18.09c0,0,6.66,15.71,7.5,33.06S436,278.67,426.93,300.27Z"/>
          <path class="cls-9" d="M448.64,255s10.82-5.35,10-8.37-11.23,3.69-11.23,3.69,21.1-96.46-20.47-94c0,0,2.62-12.25-19.61-22.73s-63.3-17-93-16-98.72,13.56-78.57,36c0,0-16.49,6.72-23.56,18.87s5,77.88,5,77.88-3.74-3.71-5.62-2.25,1.88,5.15,1.88,5.15-12.7-5.15-14.78-3.45,15.2,6.78,15.2,6.78-5.42.4-4.17,2.33S218,260.8,218,260.8s-5.77,7.15-3.2,9.87a10.2,10.2,0,0,0,5.07,3.17s-6.25,11.31-3.75,13.14a43,43,0,0,1,6,6.29s-9.1,6.67-6.19,8a29.18,29.18,0,0,0,7.64,1.78s-9.09,4-7,7.12a26.62,26.62,0,0,0,5.62,5.68s-11.1,2.37-10,6.53,11.38,4.15,11.38,4.15-6.22,8.69-1.45,12.25,11.79,3.76,11.79,3.76-8.12,6.92-5.35,8.69S239.11,353,239.11,353s-2.19,13.05,6.68,14.63,24.13,1.58,24.13,1.58,1.27,6.33,8.82,6.33A144.24,144.24,0,0,0,296.56,374s8.94,6,16.19,6.32,18.51-3.85,18.51-3.85a37.41,37.41,0,0,0,10.32,3.87c5.07.87,5.29-4.17,5.29-4.17s8.82,5,12.63,4.27-1.84-5.75-1.84-5.75,16.73,4.15,28.25,1.78,11.53-9.19,11.53-9.19,8.47,2.67,16.51.89,5.89-9.79,5.89-9.79,6.32.3,10.9-3-3.81-5.93-3.81-5.93,15.05-3.27,19.22-13.35-3.34-14.53-3.34-14.53,7.63-4.45,8.75-10.08-8.75.59-8.75.59,8.75-7.41,8.75-9.19-7.3-4.15-7.3-4.15,7.3-2.94,7.3-8.29-5.83-8.3-5.83-8.3,4.34-4.55,5.92-9.25-7.39-2.24-7.39-2.24,11.46-3.65,14.37-7.5-8.74-1.78-8.74-1.78,10.08-1.81,11.49-4S448.64,255,448.64,255Zm-21.71,45.28s.83-2.57-.9-2.86-3.2,1.93-3.2,1.93-2.3-4.44-6.14-4.44,0,2.51,0,2.51-14.05-5.78-19.46-5c0,0-22.89-7.86-45.79-8.45,0,0-16.33,6.22-42-.11,0,0-27.56,3.22-44,14.34,0,0-4.17-1.5-4.38-.75s1.25,2.53,1.25,2.53-7.49-3.26-8.74-1.93,1.25,3.26,1.25,3.26-7.31-4.76-9.48-3.86-5,3.86-5,3.86,2.44-9.13-.69-8.71a52.21,52.21,0,0,0-5.75,1.1s-8.12-35-7-62.23c0,0-.14-23.71,11.1-39.13,0,0,31.88-23.07,17.9-27.87,0,0,13.74,4.45,27.27,4.45s71.2-11.86,90.86-9.2,28.4,12.46,28.4,12.46,14.16-2.08,19.57-8.3c0,0-2.3,5.63-5.31,7.41s2.6,12,13.22,18.09c0,0,6.66,15.71,7.5,33.06S436,278.67,426.93,300.27Z"/>
          <path class="cls-10" d="M448.64,255s10.82-5.35,10-8.37-11.23,3.69-11.23,3.69,21.1-96.46-20.47-94c0,0,2.62-12.25-19.61-22.73s-63.3-17-93-16-98.72,13.56-78.57,36c0,0-16.49,6.72-23.56,18.87s5,77.88,5,77.88-3.74-3.71-5.62-2.25,1.88,5.15,1.88,5.15-12.7-5.15-14.78-3.45,15.2,6.78,15.2,6.78-5.42.4-4.17,2.33S218,260.8,218,260.8s-5.77,7.15-3.2,9.87a10.2,10.2,0,0,0,5.07,3.17s-6.25,11.31-3.75,13.14a43,43,0,0,1,6,6.29s-9.1,6.67-6.19,8a29.18,29.18,0,0,0,7.64,1.78s-9.09,4-7,7.12a26.62,26.62,0,0,0,5.62,5.68s-11.1,2.37-10,6.53,11.38,4.15,11.38,4.15-6.22,8.69-1.45,12.25,11.79,3.76,11.79,3.76-8.12,6.92-5.35,8.69S239.11,353,239.11,353s-2.19,13.05,6.68,14.63,24.13,1.58,24.13,1.58,1.27,6.33,8.82,6.33A144.24,144.24,0,0,0,296.56,374s8.94,6,16.19,6.32,18.51-3.85,18.51-3.85a37.41,37.41,0,0,0,10.32,3.87c5.07.87,5.29-4.17,5.29-4.17s8.82,5,12.63,4.27-1.84-5.75-1.84-5.75,16.73,4.15,28.25,1.78,11.53-9.19,11.53-9.19,8.47,2.67,16.51.89,5.89-9.79,5.89-9.79,6.32.3,10.9-3-3.81-5.93-3.81-5.93,15.05-3.27,19.22-13.35-3.34-14.53-3.34-14.53,7.63-4.45,8.75-10.08-8.75.59-8.75.59,8.75-7.41,8.75-9.19-7.3-4.15-7.3-4.15,7.3-2.94,7.3-8.29-5.83-8.3-5.83-8.3,4.34-4.55,5.92-9.25-7.39-2.24-7.39-2.24,11.46-3.65,14.37-7.5-8.74-1.78-8.74-1.78,10.08-1.81,11.49-4S448.64,255,448.64,255Zm-21.71,45.28s.83-2.57-.9-2.86-3.2,1.93-3.2,1.93-2.3-4.44-6.14-4.44,0,2.51,0,2.51-14.05-5.78-19.46-5c0,0-22.89-7.86-45.79-8.45,0,0-16.33,6.22-42-.11,0,0-27.56,3.22-44,14.34,0,0-4.17-1.5-4.38-.75s1.25,2.53,1.25,2.53-7.49-3.26-8.74-1.93,1.25,3.26,1.25,3.26-7.31-4.76-9.48-3.86-5,3.86-5,3.86,2.44-9.13-.69-8.71a52.21,52.21,0,0,0-5.75,1.1s-8.12-35-7-62.23c0,0-.14-23.71,11.1-39.13,0,0,31.88-23.07,17.9-27.87,0,0,13.74,4.45,27.27,4.45s71.2-11.86,90.86-9.2,28.4,12.46,28.4,12.46,14.16-2.08,19.57-8.3c0,0-2.3,5.63-5.31,7.41s2.6,12,13.22,18.09c0,0,6.66,15.71,7.5,33.06S436,278.67,426.93,300.27Z"/>
        </g>
        <path class="cls-11" d="M272.73,125.68s-34.71,7.71-35.84,17.79,19.64,20.76,43,22.74,68-15,98.84-8.5c0,0-13.44-4.35-31.42-2s-50.65,8.7-63.32,7.12,1.52-8.31,1.52-8.31-8.75,3.17-10.08,5.14c0,0-3.43-8.53,8.86-13.65,0,0-20.1,4.75-22.86,10.29,0,0,2.4-6.72,4.62-7.71,0,0-8.88,3.56-8.88,5.54,0,0-8.33-5.14-4.44-10.48,0,0-4.72,3.76-3.06,6.33C249.65,150,233.36,136.16,272.73,125.68Z"/>
      </g>
      <g>
        <path class="cls-12" d="M301,188.26s42.19.15,74.15-5.07C375.17,183.19,318.46,192.8,301,188.26Z"/>
        <path class="cls-13" d="M291,182.3s38.44,1,56.62-.91C347.64,181.39,334,185.43,291,182.3Z"/>
      </g>
      <path class="cls-14" d="M260.36,322.17c-4.25,1.83-3.33,7.92-7.61,5.86-3.36-1.61-2.22-5.43-1-8.53,1.88-4.64,5.77-8.33,13.74-12.74,2.73,2.83-4.06,8.31,2.14,9.65,3.57.78,3.85-3.66,5.49-5.76,13.1-16.85,32.86-23.19,53.2-16.53,3.09,1,5.46,2.09,8.89.59,18.5-8.08,47.42,1.57,58.72,19.55,3.08,4.88,5.22,9.32,12.48,5.47,8.15-4.32,8.42-3.8,2-17.42,8.29,1.33,17.44,11.4,17.2,19,0,1.4,0,4.09-2,3.23-9.69-4.09-15.3,6.52-23.89,6.23-3.42-.11-5.62,2.24-7.46,5.11-18.08,28-45.59,32.41-75.45,28.68-17.81-2.23-33.58-9.42-43.06-26.35C270.3,332,261.48,330.44,260.36,322.17Z"/>
      <path class="cls-15" d="M391.55,323.23H276.63c7.28-19.12,27.74-29.32,45.5-22.93,7.08,2.55,12.41,1.78,19.09-1.29,11.43-5.24,22.38.2,32.55,5.16C381.64,308,387.51,314.53,391.55,323.23Z"/>
      <path class="cls-15" d="M328.5,356a57.64,57.64,0,0,1-38.18-9.46,25.91,25.91,0,0,1-8.8-9.45c-2.95-5.51-1.79-8.24,4.67-8,31.76,1.18,63.49,3.29,95.31,2.42,7.67-.21,5.16,4,2.28,7.29-10,11.55-23.7,15.46-38.18,17.1C340.5,356.48,335.28,356,328.5,356Z"/>
      <path class="cls-16" d="M378,335.18c-13.37,11.65-28.43,15.35-45.32,10.77-2.34-.63-4.65-1.6-4.32-4.68.21-2,2-2.41,3.55-2.28C347.54,340.36,362.54,335.55,378,335.18Z"/>
      <path class="cls-17" d="M151.62,205.91l-4.57-2.09-.6-1.57L157,196.6c.82-3.66,4.15-5.06,10.7-3.31-.34,11.1.7,12.48,9.08,12,2.39,5.57,1,9-4.92,12.11l-2.07-5.54c-1.9,4.46-1.09,10-7.79,10.88-.41-2.22-.82-4.5-1.31-7.2-2.09,3.88-3.09,8-5.69,10-4.1,3.24-6.93-.52-9-4.43l-1.35,1.32c1.33,2,2.27,4.94,4.1,5.66a11.6,11.6,0,0,0,8-.22c5.75-2.41,11.13-5.7,16.78-8.38,5-2.35,7.75-6.63,7.44-12.17-.09-1.46,0-2.92,0-4.68a32.9,32.9,0,0,1-5.73-.07c-1.65-.31-4.41-1.07-4.53-1.94-.27-1.9.17-4.86,1.48-5.84A22.76,22.76,0,0,1,192,191.07c1.75.45,3.61,4.12,3.79,6.44.93,12.14-.12,23.87-9.87,32.9a22,22,0,0,0-2.17,3c1.43-.1,2.18-.11,2.92-.22s1.19-.3,3.32-.87c-1.74,3.56-2.49,6.42-4.23,8.4-7.48,8.5-17.22,12.51-28.4,12.78-5.44.12-7.07-1.49-8.29-6.83l10.7-.75.31-1.49c-6.07-1.83-14,.79-17.85-6.4-3.4-6.3-3.62-13-2.71-19.85C140.39,211.79,143.65,207.47,151.62,205.91Z"/>
      <path class="cls-17" d="M180.05,174.92c0,2.09,0,4.18,0,6.28-.05,7.05-.47,7.69-7.49,9.08-.87.17-3.07-1.59-3.05-2.4.21-6.91.75-13.81,1.27-20.71.09-1.1.23-2.72.93-3.16a20.24,20.24,0,0,1,6.53-2.69c.43-.08,1.9,2.82,2.09,4.44a79.89,79.89,0,0,1,.1,9.16Z"/>
      <path class="cls-17" d="M458.36,390c-1.31-.22-2.89-.11-4-.76-1.51-.87-4-2.91-3.8-3.45,2.12-4.94-2.47-7.7-3.3-11.58-.91-4.17,1.12-7.51,4.18-9.86a69.29,69.29,0,0,1,12.26-7.73c1.74-.83,4.43.34,5.53.47-.59-3-2.75-7.11-1.57-9.6,1.94-4.05,7-3.74,11.09-3.86l-1,1.34c1.68,2.34,2.88,5.55,5.15,6.84,4.88,2.75,8.11-.91,10.86-4.46,9.43,5.27,9.22,11.23-.31,18.12l7-.86c2.54,9.71,2.24,19.39-3,28.52-2.21,3.81-5.48,5.83-10.24,4.87-1.51-.3-3.23.57-4.87.73-3.58.35-7.7,2.13-9.07-3.22C461.8,397,459.77,396.29,458.36,390Z"/>
      <path class="cls-18" d="M347.66,470.82l5.09-.49.12-1c-1.35-.47-2.71-.89-4-1.43-3.4-1.38-3.87-3.86-1-6.16,1.7-1.35,3.79-2.19,6.16-3.52.39,3.73-.22,7.26,4.61,7.61,6.14.44,5.05-4.62,6.45-7.95,3.93.64,7.92,1.74,8.81,5.77.39,1.71-2.38,4.13-4,6.73.91,1.76,5.79-3.62,5.77,2.13-2.05,1.2-4.35,2.39-6.48,3.83s-4.05,3.12-6.07,4.7l1.36,1.51c1-.77,1.95-1.53,2.91-2.31,7.42-6.07,15.83-8.51,25.19-6.08,10.42,2.71,16.3,15,12.11,24.79a5.07,5.07,0,0,1-2.5,2.52C396,503.81,390,506.74,383.63,508a56.61,56.61,0,0,1-26.37-1,33.89,33.89,0,0,1-6.91-2.79c-6.44-3.46-7.4-5.21-6.33-12.35S346.43,477.83,347.66,470.82Z"/>
      <path class="cls-18" d="M335.45,470.82l-5.1-.49-.11-1c1.34-.47,2.71-.89,4-1.43,3.39-1.38,3.86-3.86,1-6.16-1.7-1.35-3.79-2.19-6.16-3.52-.39,3.73.22,7.26-4.61,7.61-6.14.44-5.05-4.62-6.45-7.95-3.93.64-7.92,1.74-8.82,5.77-.38,1.71,2.39,4.13,4,6.73-.92,1.76-5.79-3.62-5.77,2.13,2,1.2,4.35,2.39,6.48,3.83S318,479.45,320,481l-1.36,1.51c-1-.77-2-1.53-2.91-2.31-7.43-6.07-15.83-8.51-25.19-6.08-10.42,2.71-16.31,15-12.11,24.79a5.07,5.07,0,0,0,2.5,2.52c6.12,2.35,12.17,5.28,18.53,6.54a56.57,56.57,0,0,0,26.36-1,33.89,33.89,0,0,0,6.91-2.79c6.45-3.46,7.4-5.21,6.34-12.35S336.68,477.83,335.45,470.82Z"/>
    </g>
    <g id="Layer_2" data-name="Layer 2">
      <g>
        <g>
          <path class="cls-19" d="M397.79,239.28c0,15-10.1,27.14-22.58,27.14s-22.57-12.15-22.57-27.14,10.1-27.15,22.57-27.15S397.79,224.29,397.79,239.28Z"/>
          <path class="cls-20" d="M397.79,238.48c0,14.55-10.1,26.35-22.58,26.35s-22.57-11.8-22.57-26.35,10.1-26.35,22.57-26.35S397.79,223.93,397.79,238.48Z"/>
          <path class="cls-21" d="M397.79,238.48c0,14.55-10.1,26.35-22.58,26.35s-22.57-11.8-22.57-26.35,10.1-26.35,22.57-26.35S397.79,223.93,397.79,238.48Z"/>
        </g>
        <g>
          <path class="cls-22" d="M385,238.77c0,6.34-4.39,11.48-9.83,11.48s-9.84-5.14-9.84-11.48,4.41-11.48,9.84-11.48S385,232.43,385,238.77Z"/>
          <path class="cls-23" d="M385.11,238.7c0,6.33-4.4,11.47-9.83,11.47s-9.84-5.14-9.84-11.47,4.4-11.48,9.84-11.48S385.11,232.36,385.11,238.7Z"/>
          <path class="cls-24" d="M381.68,238.77c0,4.17-2.89,7.55-6.47,7.55s-6.46-3.38-6.46-7.55,2.9-7.54,6.46-7.54S381.68,234.6,381.68,238.77Z"/>
          <path class="cls-25" d="M379.24,238.77c0,2.6-1.81,4.7-4,4.7s-4-2.1-4-4.7,1.81-4.69,4-4.69S379.24,236.18,379.24,238.77Z"/>
          <path class="cls-26" d="M385,238.77c0-6.34-4.39-11.48-9.83-11.48-5.22,0-9.44,4.76-9.77,10.74l18.42,6.11A13,13,0,0,0,385,238.77Z"/>
          <path class="cls-20" d="M380.35,237.56c0,.39-.61.71-1.38.71s-1.39-.32-1.39-.71.63-.71,1.39-.71S380.35,237.16,380.35,237.56Z"/>
          <path class="cls-20" d="M379.76,239.88c-.05.21-.4.3-.8.21s-.68-.31-.63-.52.39-.3.78-.21S379.8,239.68,379.76,239.88Z"/>
        </g>
      </g>
      <g>
        <path class="cls-27" d="M397,207s-17.71,5.53-31.66,19.16c0,0-15.91-6.42-17.3-9.61s7-2.93,7-2.93-3.47-6.21-1.09-8.4,2.75,5.32,2.75,5.32,2-8.3,6.06-8.73-.36,3.92-.36,3.92,10-8.47,11.66-6.89-.74,3.75-.74,3.75,11.42-5,15.33-3.61S397,207,397,207Z"/>
        <path class="cls-8" d="M394.46,206.42s-17.71,5.53-31.65,19.15c0,0-15.91-6.41-17.31-9.6s7.05-2.94,7.05-2.94-3.47-6.21-1.09-8.4,2.75,5.32,2.75,5.32,2-8.29,6.07-8.73-.37,3.93-.37,3.93,10-8.48,11.65-6.9-.73,3.76-.73,3.76,11.42-5,15.32-3.61S394.46,206.42,394.46,206.42Z"/>
        <path class="cls-28" d="M394.46,206.42s-17.71,5.53-31.65,19.15c0,0-15.91-6.41-17.31-9.6s7.05-2.94,7.05-2.94-3.47-6.21-1.09-8.4,2.75,5.32,2.75,5.32,2-8.29,6.07-8.73-.37,3.93-.37,3.93,10-8.48,11.65-6.9-.73,3.76-.73,3.76,11.42-5,15.32-3.61S394.46,206.42,394.46,206.42Z"/>
        <path class="cls-29" d="M394.46,206.42s-17.71,5.53-31.65,19.15c0,0-15.91-6.41-17.31-9.6s7.05-2.94,7.05-2.94-3.47-6.21-1.09-8.4,2.75,5.32,2.75,5.32,2-8.29,6.07-8.73-.37,3.93-.37,3.93,10-8.48,11.65-6.9-.73,3.76-.73,3.76,11.42-5,15.32-3.61S394.46,206.42,394.46,206.42Z"/>
      </g>
      <path class="cls-30" d="M329.46,194a16.84,16.84,0,0,0,5.78,14.85S323.54,203.65,329.46,194Z"/>
      <g>
        <g>
          <path class="cls-31" d="M307.43,240c0,17.19-11.58,31.13-25.87,31.13s-25.9-13.94-25.9-31.13,11.6-31.11,25.9-31.11S307.43,222.84,307.43,240Z"/>
          <path class="cls-20" d="M307.43,239.11c0,16.68-11.58,30.21-25.87,30.21s-25.9-13.53-25.9-30.21,11.6-30.2,25.9-30.2S307.43,222.43,307.43,239.11Z"/>
          <path class="cls-32" d="M307.43,239.11c0,16.68-11.58,30.21-25.87,30.21s-25.9-13.53-25.9-30.21,11.6-30.2,25.9-30.2S307.43,222.43,307.43,239.11Z"/>
        </g>
        <g>
          <path class="cls-22" d="M292.82,239.45c0,7.26-5,13.16-11.26,13.16s-11.28-5.9-11.28-13.16,5.05-13.16,11.28-13.16S292.82,232.18,292.82,239.45Z"/>
          <path class="cls-33" d="M292.82,239.45c0,7.26-5,13.16-11.26,13.16s-11.28-5.9-11.28-13.16,5.05-13.16,11.28-13.16S292.82,232.18,292.82,239.45Z"/>
          <path class="cls-34" d="M289,239.45c0,4.78-3.32,8.65-7.41,8.65s-7.42-3.87-7.42-8.65,3.32-8.65,7.42-8.65S289,234.67,289,239.45Z"/>
          <path class="cls-25" d="M286.16,239.45c0,3-2.07,5.38-4.6,5.38s-4.62-2.41-4.62-5.38,2.07-5.38,4.62-5.38S286.16,236.48,286.16,239.45Z"/>
          <path class="cls-35" d="M292.82,239.45c0-7.27-5-13.16-11.26-13.16-6,0-10.83,5.44-11.22,12.31l21.12,7A14.74,14.74,0,0,0,292.82,239.45Z"/>
          <path class="cls-20" d="M287.45,238.05c0,.46-.71.82-1.58.82s-1.6-.36-1.6-.82.72-.81,1.6-.81S287.45,237.61,287.45,238.05Z"/>
          <path class="cls-20" d="M286.77,240.72c-.06.24-.47.34-.91.24s-.78-.36-.74-.6.46-.34.91-.24S286.82,240.49,286.77,240.72Z"/>
        </g>
        <path class="cls-36" d="M262.34,207.85s16.67-13.07,30-5.89C292.33,202,281.57,189.65,262.34,207.85Z"/>
      </g>
      <path class="cls-37" d="M318.66,194.07a19.28,19.28,0,0,1,4.88,17.61S330.72,198.87,318.66,194.07Z"/>
      <g>
        <path class="cls-38" d="M265.71,207.77s17.71,5.53,31.66,19.16c0,0,15.91-6.42,17.3-9.61s-7.05-2.94-7.05-2.94,3.48-6.2,1.1-8.4-2.75,5.33-2.75,5.33-2-8.3-6.06-8.74.36,3.92.36,3.92-10-8.47-11.66-6.89.74,3.76.74,3.76-11.43-5-15.33-3.61S265.71,207.77,265.71,207.77Z"/>
        <path class="cls-8" d="M268.27,207.14s17.71,5.53,31.65,19.16c0,0,15.91-6.41,17.31-9.6s-7.05-2.94-7.05-2.94,3.47-6.21,1.09-8.4-2.75,5.32-2.75,5.32-2-8.3-6.07-8.73.37,3.92.37,3.92-10-8.47-11.65-6.9.73,3.76.73,3.76-11.42-5-15.32-3.61S268.27,207.14,268.27,207.14Z"/>
        <path class="cls-39" d="M268.27,207.14s17.71,5.53,31.65,19.16c0,0,15.91-6.41,17.31-9.6s-7.05-2.94-7.05-2.94,3.47-6.21,1.09-8.4-2.75,5.32-2.75,5.32-2-8.3-6.07-8.73.37,3.92.37,3.92-10-8.47-11.65-6.9.73,3.76.73,3.76-11.42-5-15.32-3.61S268.27,207.14,268.27,207.14Z"/>
        <path class="cls-40" d="M268.27,207.14s17.71,5.53,31.65,19.16c0,0,15.91-6.41,17.31-9.6s-7.05-2.94-7.05-2.94,3.47-6.21,1.09-8.4-2.75,5.32-2.75,5.32-2-8.3-6.07-8.73.37,3.92.37,3.92-10-8.47-11.65-6.9.73,3.76.73,3.76-11.42-5-15.32-3.61S268.27,207.14,268.27,207.14Z"/>
      </g>
      <g>
        <path class="cls-41" d="M412,216.19a227.9,227.9,0,0,0-32.4-5.73q-1.8-.24-3.75-.39l-.59,0c-.21,0-.42,0-.64-.06l.1,0c-14-.92-24.09,1.84-29.92,8.29-4.08,4.53-5.62,10.22-5.94,15.89a39.32,39.32,0,0,0-.21,4.19l-1.17-.33.05-.16a33.93,33.93,0,0,0-19.12.51c0-1.39-.1-2.79-.25-4.19-.39-5.66-2-11.34-6.12-15.83-5.9-6.38-16-9-30-8l.1,0-.63.07-.59,0c-1.3.12-2.54.27-3.74.44A227,227,0,0,0,244.86,217c-1.16,3.94-.41,9.57-.41,9.57h0c.07,1,.16,1.73.16,1.73s2.84-1.65,3.56.21c-.16,4.2.55,15.1.55,15.1h0c.11,3.15.38,6.29.66,9.31a.69.69,0,0,0,0,.13c.05.53.09,1.07.13,1.59,1.6,17.61,16,27.32,37.69,25.37,18.76-1.7,26.65-9.53,30.16-29.91.21-1.2.4-2.48.57-3.81a27.18,27.18,0,0,1,6.34-1.84,28.71,28.71,0,0,1,15,1.83c.19,1.32.4,2.6.62,3.79,3.73,20.35,11.71,28.09,30.48,29.58,21.68,1.72,36-8.16,37.41-25.78l.12-1.55c0-.06,0-.12,0-.18.24-3,.48-6.16.55-9.31h0s.6-10.91.39-15.11c.7-1.87,3.57-.25,3.57-.25s.08-.7.13-1.73h0S413.24,220.11,412,216.19Z"/>
        <g>
          <g>
            <path class="cls-42" d="M314.49,234.16c1.69,18.59-8,39.08-26.3,40.74-27.21,2.46-34.32-9.89-36-28.48s6.53-31.16,24.87-32.82S312.81,215.56,314.49,234.16Z"/>
            <path class="cls-43" d="M318.23,239.35c.18-7-1.05-14.46-6.23-20.06-5.89-6.39-16-9-30-8l.1,0-.63.07-.59,0c-1.3.12-2.54.27-3.74.44a228.75,228.75,0,0,0-32.34,6.08c-1.16,3.94-.41,9.57-.41,9.57s4-2.33,3.74,1.52.54,15.53.54,15.53h0c.11,3.14.38,6.29.66,9.3,1.59,17.6,16,27.32,37.68,25.36,18.76-1.7,26.66-9.52,30.16-29.91.21-1.2.4-2.48.57-3.8a28.7,28.7,0,0,1,18.1-1.38l.83-2.66.85-2.64A33.89,33.89,0,0,0,318.23,239.35Zm-6.54,9c-3.09,17.93-9,23.85-25.18,25.32-8.9.8-29.78.43-31.66-20.33-1.64-18.1-3-33.73,26.52-36.4,12.8-1.16,21.73.9,26.55,6.13C312.59,228.11,313.78,236.15,311.69,248.34Z"/>
            <path class="cls-18" d="M318.23,239.35c.18-7-1.05-14.46-6.23-20.06-5.89-6.39-16-9-30-8l.1,0-.63.07-.59,0c-1.3.12-2.54.27-3.74.44a228.75,228.75,0,0,0-32.34,6.08c-1.16,3.94-.41,9.57-.41,9.57s4-2.33,3.74,1.52.54,15.53.54,15.53h0c.11,3.14.38,6.29.66,9.3,1.59,17.6,16,27.32,37.68,25.36,18.76-1.7,26.66-9.52,30.16-29.91.21-1.2.4-2.48.57-3.8a28.7,28.7,0,0,1,18.1-1.38l.83-2.66.85-2.64A33.89,33.89,0,0,0,318.23,239.35Zm-6.54,9c-3.09,17.93-9,23.85-25.18,25.32-8.9.8-29.78.43-31.66-20.33-1.64-18.1-3-33.73,26.52-36.4,12.8-1.16,21.73.9,26.55,6.13C312.59,228.11,313.78,236.15,311.69,248.34Z"/>
            <path class="cls-43" d="M318.07,237.62c.19-7-1.05-14.46-6.22-20.06-5.9-6.39-16-9-30-8l.1,0-.63.07-.6,0c-1.3.12-2.54.27-3.74.44a229.13,229.13,0,0,0-32.34,6.08c-1.16,3.94-.41,9.57-.41,9.57s4-2.33,3.74,1.52.54,15.53.54,15.53h0c.11,3.14.39,6.29.66,9.3,1.59,17.6,16,27.32,37.69,25.36,18.75-1.7,26.65-9.52,30.16-29.91.2-1.2.4-2.48.57-3.8a28.67,28.67,0,0,1,18.09-1.38l.84-2.65.84-2.65A33.89,33.89,0,0,0,318.07,237.62Zm-6.54,9c-3.09,17.94-9,23.85-25.18,25.31-8.89.81-29.78.44-31.65-20.32-1.64-18.1-3.06-33.73,26.51-36.4,12.8-1.16,21.73.9,26.55,6.13C312.43,226.38,313.62,234.42,311.53,246.61Z"/>
            <path class="cls-18" d="M318.07,237.62c.19-7-1.05-14.46-6.22-20.06-5.9-6.39-16-9-30-8l.1,0-.63.07-.6,0c-1.3.12-2.54.27-3.74.44a229.13,229.13,0,0,0-32.34,6.08c-1.16,3.94-.41,9.57-.41,9.57s4-2.33,3.74,1.52.54,15.53.54,15.53h0c.11,3.14.39,6.29.66,9.3,1.59,17.6,16,27.32,37.69,25.36,18.75-1.7,26.65-9.52,30.16-29.91.2-1.2.4-2.48.57-3.8a28.67,28.67,0,0,1,18.09-1.38l.84-2.65.84-2.65A33.89,33.89,0,0,0,318.07,237.62Zm-6.54,9c-3.09,17.94-9,23.85-25.18,25.31-8.89.81-29.78.44-31.65-20.32-1.64-18.1-3.06-33.73,26.51-36.4,12.8-1.16,21.73.9,26.55,6.13C312.43,226.38,313.62,234.42,311.53,246.61Z"/>
            <g>
              <path class="cls-44" d="M255.39,220.12a2.82,2.82,0,1,1-3-2.11A2.59,2.59,0,0,1,255.39,220.12Z"/>
              <path class="cls-43" d="M255.75,219.56a2.82,2.82,0,1,1-3-2.11A2.6,2.6,0,0,1,255.75,219.56Z"/>
              <path class="cls-43" d="M255.7,219.05a2.81,2.81,0,1,1-3-2.12A2.6,2.6,0,0,1,255.7,219.05Z"/>
              <path class="cls-43" d="M255.7,219.05a2.81,2.81,0,1,1-3-2.12A2.6,2.6,0,0,1,255.7,219.05Z"/>
            </g>
          </g>
          <g>
            <path class="cls-42" d="M342.15,234.1c-1.48,18.62,8.4,39,26.76,40.45,27.24,2.16,34.21-10.26,35.68-28.87s-6.88-31.09-25.23-32.55S343.63,215.49,342.15,234.1Z"/>
            <path class="cls-43" d="M321.07,242.55h0l-.14,1.73A28.76,28.76,0,0,1,339,245.46c.18,1.32.39,2.6.61,3.8,3.73,20.34,11.71,28.08,30.48,29.57,21.69,1.72,36-8.15,37.42-25.77.24-3,.48-6.16.55-9.32h0s.64-11.68.37-15.53,3.72-1.56,3.72-1.56.68-5.64-.51-9.57a228.85,228.85,0,0,0-32.41-5.72c-1.2-.16-2.44-.3-3.75-.4l-.58,0-.64-.06.1,0c-14-.93-24.1,1.84-29.92,8.29-5.11,5.66-6.26,13.15-6,20.13A18.83,18.83,0,0,0,321.07,242.55Zm27.53-19.62c4.77-5.28,13.68-7.44,26.48-6.42,29.6,2.35,28.36,18,26.92,36.11-1.64,20.78-22.52,21.38-31.43,20.67-16.22-1.29-22.17-7.13-25.45-25C342.89,236.09,344,228,348.6,222.93Z"/>
            <path class="cls-18" d="M321.07,242.55h0l-.14,1.73A28.76,28.76,0,0,1,339,245.46c.18,1.32.39,2.6.61,3.8,3.73,20.34,11.71,28.08,30.48,29.57,21.69,1.72,36-8.15,37.42-25.77.24-3,.48-6.16.55-9.32h0s.64-11.68.37-15.53,3.72-1.56,3.72-1.56.68-5.64-.51-9.57a228.85,228.85,0,0,0-32.41-5.72c-1.2-.16-2.44-.3-3.75-.4l-.58,0-.64-.06.1,0c-14-.93-24.1,1.84-29.92,8.29-5.11,5.66-6.26,13.15-6,20.13A18.83,18.83,0,0,0,321.07,242.55Zm27.53-19.62c4.77-5.28,13.68-7.44,26.48-6.42,29.6,2.35,28.36,18,26.92,36.11-1.64,20.78-22.52,21.38-31.43,20.67-16.22-1.29-22.17-7.13-25.45-25C342.89,236.09,344,228,348.6,222.93Z"/>
            <path class="cls-43" d="M319.33,237.27l.87,2.64.87,2.64a28.64,28.64,0,0,1,18.1,1.18c.19,1.33.4,2.6.62,3.8,3.73,20.34,11.71,28.08,30.48,29.57,21.68,1.72,36-8.16,37.41-25.77.24-3,.49-6.17.56-9.32h0s.64-11.68.36-15.53,3.73-1.57,3.73-1.57.68-5.63-.51-9.56a228.87,228.87,0,0,0-32.4-5.72c-1.21-.16-2.46-.3-3.76-.4-.2,0-.39,0-.58,0l-.64-.06.09,0c-14-.92-24.08,1.85-29.91,8.3-5.11,5.66-6.26,13.15-6,20.12A34,34,0,0,0,319.33,237.27Zm29.41-16.07c4.76-5.28,13.67-7.44,26.48-6.42,29.6,2.35,28.36,18,26.92,36.11-1.65,20.77-22.52,21.38-31.42,20.67-16.23-1.29-22.18-7.14-25.47-25C343,234.36,344.13,226.31,348.74,221.2Z"/>
            <path class="cls-18" d="M319.33,237.27l.87,2.64.87,2.64a28.64,28.64,0,0,1,18.1,1.18c.19,1.33.4,2.6.62,3.8,3.73,20.34,11.71,28.08,30.48,29.57,21.68,1.72,36-8.16,37.41-25.77.24-3,.49-6.17.56-9.32h0s.64-11.68.36-15.53,3.73-1.57,3.73-1.57.68-5.63-.51-9.56a228.87,228.87,0,0,0-32.4-5.72c-1.21-.16-2.46-.3-3.76-.4-.2,0-.39,0-.58,0l-.64-.06.09,0c-14-.92-24.08,1.85-29.91,8.3-5.11,5.66-6.26,13.15-6,20.12A34,34,0,0,0,319.33,237.27Zm29.41-16.07c4.76-5.28,13.67-7.44,26.48-6.42,29.6,2.35,28.36,18,26.92,36.11-1.65,20.77-22.52,21.38-31.42,20.67-16.23-1.29-22.18-7.14-25.47-25C343,234.36,344.13,226.31,348.74,221.2Z"/>
            <g>
              <path class="cls-44" d="M401.1,219.42a2.81,2.81,0,1,0,3-2.15A2.61,2.61,0,0,0,401.1,219.42Z"/>
              <path class="cls-43" d="M400.73,218.86a2.81,2.81,0,1,0,3-2.14A2.61,2.61,0,0,0,400.73,218.86Z"/>
              <path class="cls-43" d="M400.77,218.35a2.82,2.82,0,1,0,3-2.15A2.61,2.61,0,0,0,400.77,218.35Z"/>
              <path class="cls-43" d="M400.77,218.35a2.82,2.82,0,1,0,3-2.15A2.61,2.61,0,0,0,400.77,218.35Z"/>
            </g>
          </g>
        </g>
      </g>
    </g>
  </g>
</svg>
