<svg xmlns="http://www.w3.org/2000/svg" xmlns:xlink="http://www.w3.org/1999/xlink" viewBox="0 0 639.11 600.85">
  <defs>
    <style>
      .cls-1 {
        isolation: isolate;
      }

      .cls-2 {
        fill: none;
      }

      .cls-13, .cls-2, .cls-33, .cls-41 {
        opacity: 0.3;
      }

      .cls-13, .cls-2 {
        mix-blend-mode: overlay;
      }

      .cls-3 {
        fill: #f1c3a7;
      }

      .cls-4 {
        fill: #f6dad5;
      }

      .cls-5 {
        fill: #3c291c;
      }

      .cls-6 {
        fill: #fcc7a7;
      }

      .cls-12, .cls-14, .cls-15, .cls-16, .cls-17, .cls-20, .cls-22, .cls-24, .cls-26, .cls-27, .cls-30, .cls-31, .cls-32, .cls-34, .cls-35, .cls-36, .cls-37, .cls-39, .cls-40, .cls-7, .cls-8, .cls-9 {
        opacity: 0.5;
      }

      .cls-12, .cls-14, .cls-15, .cls-16, .cls-17, .cls-20, .cls-21, .cls-22, .cls-24, .cls-25, .cls-26, .cls-27, .cls-28, .cls-30, .cls-31, .cls-32, .cls-34, .cls-35, .cls-36, .cls-37, .cls-39, .cls-40, .cls-7, .cls-8, .cls-9 {
        mix-blend-mode: multiply;
      }

      .cls-7 {
        fill: url(#radial-gradient);
      }

      .cls-8 {
        fill: #edc3ab;
      }

      .cls-9 {
        fill: url(#linear-gradient);
      }

      .cls-10 {
        fill: url(#linear-gradient-2);
      }

      .cls-11 {
        fill: #342318;
      }

      .cls-12 {
        fill: url(#radial-gradient-2);
      }

      .cls-13 {
        fill: url(#linear-gradient-3);
      }

      .cls-14 {
        fill: url(#linear-gradient-4);
      }

      .cls-15 {
        fill: url(#linear-gradient-5);
      }

      .cls-16 {
        fill: url(#linear-gradient-6);
      }

      .cls-17 {
        fill: url(#linear-gradient-7);
      }

      .cls-18, .cls-19, .cls-20, .cls-21 {
        fill: #354866;
      }

      .cls-18 {
        opacity: 0.2;
        mix-blend-mode: hard-light;
      }

      .cls-22 {
        fill: url(#linear-gradient-8);
      }

      .cls-23 {
        fill: #fff;
      }

      .cls-24 {
        fill: url(#radial-gradient-4);
      }

      .cls-25 {
        fill: #aecf71;
      }

      .cls-25, .cls-28 {
        opacity: 0.9;
      }

      .cls-26 {
        fill: url(#radial-gradient-5);
      }

      .cls-27 {
        fill: url(#radial-gradient-6);
      }

      .cls-28 {
        fill: #11100f;
      }

      .cls-29, .cls-33, .cls-38, .cls-41 {
        mix-blend-mode: soft-light;
      }

      .cls-29 {
        fill: url(#linear-gradient-9);
      }

      .cls-30 {
        fill: #fac0a1;
      }

      .cls-31 {
        fill: url(#linear-gradient-10);
      }

      .cls-32 {
        fill: url(#linear-gradient-11);
      }

      .cls-33 {
        fill: url(#radial-gradient-7);
      }

      .cls-34 {
        fill: url(#linear-gradient-12);
      }

      .cls-35 {
        fill: url(#radial-gradient-8);
      }

      .cls-36 {
        fill: url(#radial-gradient-9);
      }

      .cls-37 {
        fill: url(#radial-gradient-10);
      }

      .cls-38 {
        fill: url(#linear-gradient-13);
      }

      .cls-39 {
        fill: url(#linear-gradient-14);
      }

      .cls-40 {
        fill: url(#linear-gradient-15);
      }

      .cls-41 {
        fill: url(#radial-gradient-11);
      }
    </style>
    <radialGradient id="radial-gradient" cx="-104.27" cy="230.52" r="102.24" gradientTransform="translate(486.16 -90.8) scale(1.4 1.39)" gradientUnits="userSpaceOnUse">
      <stop offset="0" stop-color="#fff" stop-opacity="0"/>
      <stop offset="0.1" stop-color="#fffdfd" stop-opacity="0.02"/>
      <stop offset="0.22" stop-color="#fef9f6" stop-opacity="0.09"/>
      <stop offset="0.36" stop-color="#fcf1ec" stop-opacity="0.2"/>
      <stop offset="0.5" stop-color="#fae7dd" stop-opacity="0.35"/>
      <stop offset="0.66" stop-color="#f7d9ca" stop-opacity="0.54"/>
      <stop offset="0.82" stop-color="#f4c9b3" stop-opacity="0.77"/>
      <stop offset="0.96" stop-color="#f1b99c"/>
    </radialGradient>
    <linearGradient id="linear-gradient" x1="337.7" y1="233.47" x2="371.14" y2="135.64" gradientUnits="userSpaceOnUse">
      <stop offset="0" stop-color="#fff" stop-opacity="0"/>
      <stop offset="0.45" stop-color="#f9e0d3" stop-opacity="0.44"/>
      <stop offset="1" stop-color="#f1b99c"/>
    </linearGradient>
    <linearGradient id="linear-gradient-2" x1="218.34" y1="161.25" x2="218.82" y2="160.42" gradientUnits="userSpaceOnUse">
      <stop offset="0" stop-color="#fff" stop-opacity="0"/>
      <stop offset="0.17" stop-color="#fff" stop-opacity="0.01"/>
      <stop offset="0.3" stop-color="#fff" stop-opacity="0.05"/>
      <stop offset="0.41" stop-color="#fff" stop-opacity="0.11"/>
      <stop offset="0.51" stop-color="#fff" stop-opacity="0.2"/>
      <stop offset="0.61" stop-color="#fff" stop-opacity="0.32"/>
      <stop offset="0.71" stop-color="#fff" stop-opacity="0.46"/>
      <stop offset="0.8" stop-color="#fff" stop-opacity="0.63"/>
      <stop offset="0.88" stop-color="#fff" stop-opacity="0.82"/>
      <stop offset="0.96" stop-color="#fff"/>
    </linearGradient>
    <radialGradient id="radial-gradient-2" cx="-86.79" cy="214.66" r="114.16" gradientTransform="translate(486.16 -68.1) scale(1.4 1.32)" gradientUnits="userSpaceOnUse">
      <stop offset="0" stop-color="#fff" stop-opacity="0"/>
      <stop offset="0.16" stop-color="#fffefe" stop-opacity="0.01"/>
      <stop offset="0.29" stop-color="#fefbfa" stop-opacity="0.05"/>
      <stop offset="0.4" stop-color="#fdf6f3" stop-opacity="0.12"/>
      <stop offset="0.51" stop-color="#fcefe9" stop-opacity="0.22"/>
      <stop offset="0.62" stop-color="#fae6dc" stop-opacity="0.35"/>
      <stop offset="0.72" stop-color="#f8dccd" stop-opacity="0.51"/>
      <stop offset="0.82" stop-color="#f5cfbb" stop-opacity="0.69"/>
      <stop offset="0.92" stop-color="#f2c0a6" stop-opacity="0.9"/>
      <stop offset="0.96" stop-color="#f1b99c"/>
    </radialGradient>
    <linearGradient id="linear-gradient-3" x1="332.95" y1="240.39" x2="410.16" y2="106.68" xlink:href="#linear-gradient-2"/>
    <linearGradient id="linear-gradient-4" x1="346.01" y1="80.6" x2="304.44" y2="147.67" xlink:href="#linear-gradient"/>
    <linearGradient id="linear-gradient-5" x1="376.73" y1="117.9" x2="349.28" y2="162.2" gradientTransform="translate(-5.96 4.47) rotate(1.79)" xlink:href="#linear-gradient"/>
    <linearGradient id="linear-gradient-6" x1="350.85" y1="125.91" x2="331.38" y2="157.32" gradientTransform="translate(-5.96 4.47) rotate(1.79)" xlink:href="#linear-gradient"/>
    <linearGradient id="linear-gradient-7" x1="373.27" y1="187.68" x2="321.93" y2="234.24" xlink:href="#linear-gradient"/>
    <linearGradient id="linear-gradient-8" x1="286.45" y1="240.52" x2="286.45" y2="254.62" xlink:href="#linear-gradient"/>
    <radialGradient id="radial-gradient-4" cx="287.74" cy="230.3" r="24.91" gradientTransform="translate(0 -36.22) scale(1 1.16)" gradientUnits="userSpaceOnUse">
      <stop offset="0" stop-color="#fff" stop-opacity="0"/>
      <stop offset="0.26" stop-color="#fffefe" stop-opacity="0.01"/>
      <stop offset="0.39" stop-color="#fefcfb" stop-opacity="0.04"/>
      <stop offset="0.49" stop-color="#fef8f5" stop-opacity="0.1"/>
      <stop offset="0.59" stop-color="#fdf3ed" stop-opacity="0.18"/>
      <stop offset="0.67" stop-color="#fbebe3" stop-opacity="0.28"/>
      <stop offset="0.74" stop-color="#f9e3d7" stop-opacity="0.41"/>
      <stop offset="0.81" stop-color="#f7d8c8" stop-opacity="0.56"/>
      <stop offset="0.88" stop-color="#f5ccb6" stop-opacity="0.73"/>
      <stop offset="0.94" stop-color="#f2bea3" stop-opacity="0.92"/>
      <stop offset="0.96" stop-color="#f1b99c"/>
    </radialGradient>
    <radialGradient id="radial-gradient-5" cx="287.01" cy="231.34" r="10.85" gradientTransform="translate(0 -36.38) scale(1 1.16)" gradientUnits="userSpaceOnUse">
      <stop offset="0" stop-color="#fff" stop-opacity="0"/>
      <stop offset="0.26" stop-color="#feffff" stop-opacity="0.01"/>
      <stop offset="0.4" stop-color="#fafdfe" stop-opacity="0.04"/>
      <stop offset="0.5" stop-color="#f3fafc" stop-opacity="0.1"/>
      <stop offset="0.6" stop-color="#e9f6fa" stop-opacity="0.19"/>
      <stop offset="0.68" stop-color="#dcf1f7" stop-opacity="0.3"/>
      <stop offset="0.75" stop-color="#ccebf3" stop-opacity="0.43"/>
      <stop offset="0.82" stop-color="#b9e4ee" stop-opacity="0.59"/>
      <stop offset="0.89" stop-color="#a3dbe9" stop-opacity="0.78"/>
      <stop offset="0.95" stop-color="#8ad2e4" stop-opacity="0.98"/>
      <stop offset="0.96" stop-color="#88d1e3"/>
    </radialGradient>
    <radialGradient id="radial-gradient-6" cx="286.45" cy="231.91" r="7.39" gradientTransform="matrix(1, 0, 0, 1, 0, 0)" xlink:href="#radial-gradient-5"/>
    <linearGradient id="linear-gradient-9" x1="286.06" y1="232.75" x2="289.76" y2="224.64" gradientUnits="userSpaceOnUse">
      <stop offset="0" stop-color="#fff" stop-opacity="0"/>
      <stop offset="0.18" stop-color="#fff" stop-opacity="0.25"/>
      <stop offset="0.39" stop-color="#fff" stop-opacity="0.52"/>
      <stop offset="0.58" stop-color="#fff" stop-opacity="0.72"/>
      <stop offset="0.74" stop-color="#fff" stop-opacity="0.87"/>
      <stop offset="0.87" stop-color="#fff" stop-opacity="0.97"/>
      <stop offset="0.96" stop-color="#fff"/>
    </linearGradient>
    <linearGradient id="linear-gradient-10" x1="282.77" y1="173.63" x2="285.95" y2="198.7" gradientUnits="userSpaceOnUse">
      <stop offset="0" stop-color="#fff" stop-opacity="0"/>
      <stop offset="0.1" stop-color="#fefaf8" stop-opacity="0.07"/>
      <stop offset="0.29" stop-color="#fceee7" stop-opacity="0.25"/>
      <stop offset="0.56" stop-color="#f8daca" stop-opacity="0.53"/>
      <stop offset="0.89" stop-color="#f2bea4" stop-opacity="0.92"/>
      <stop offset="0.96" stop-color="#f1b99c"/>
    </linearGradient>
    <linearGradient id="linear-gradient-11" x1="284.18" y1="178.14" x2="286.77" y2="187.69" gradientTransform="matrix(1, 0, 0, 1, 0, 0)" xlink:href="#radial-gradient-2"/>
    <radialGradient id="radial-gradient-7" cx="288.63" cy="202.71" r="27.79" gradientTransform="matrix(-0.01, -1, 1.68, -0.02, -47.36, 496.21)" gradientUnits="userSpaceOnUse">
      <stop offset="0" stop-color="#fff" stop-opacity="0"/>
      <stop offset="0.23" stop-color="#fff" stop-opacity="0.01"/>
      <stop offset="0.36" stop-color="#fff" stop-opacity="0.04"/>
      <stop offset="0.47" stop-color="#fff" stop-opacity="0.1"/>
      <stop offset="0.56" stop-color="#fff" stop-opacity="0.17"/>
      <stop offset="0.64" stop-color="#fff" stop-opacity="0.27"/>
      <stop offset="0.72" stop-color="#fff" stop-opacity="0.4"/>
      <stop offset="0.79" stop-color="#fff" stop-opacity="0.55"/>
      <stop offset="0.86" stop-color="#fff" stop-opacity="0.72"/>
      <stop offset="0.93" stop-color="#fff" stop-opacity="0.91"/>
      <stop offset="0.96" stop-color="#fff"/>
    </radialGradient>
    <linearGradient id="linear-gradient-12" x1="373.95" y1="237.15" x2="373.95" y2="250.99" xlink:href="#linear-gradient"/>
    <radialGradient id="radial-gradient-8" cx="375.22" cy="227.12" r="24.46" gradientTransform="translate(0 -35.72) scale(1 1.16)" xlink:href="#radial-gradient-4"/>
    <radialGradient id="radial-gradient-9" cx="374.57" cy="228.06" r="10.65" gradientTransform="translate(0 -35.86) scale(1 1.16)" xlink:href="#radial-gradient-5"/>
    <radialGradient id="radial-gradient-10" cx="373.95" cy="228.69" r="7.25" gradientTransform="matrix(1, 0, 0, 1, 0, 0)" xlink:href="#radial-gradient-5"/>
    <linearGradient id="linear-gradient-13" x1="373.57" y1="229.52" x2="377.2" y2="221.56" xlink:href="#linear-gradient-9"/>
    <linearGradient id="linear-gradient-14" x1="-668.83" y1="174.76" x2="-665.7" y2="199.37" gradientTransform="matrix(-1, 0, 0, 1, -292.84, 0)" xlink:href="#linear-gradient-10"/>
    <linearGradient id="linear-gradient-15" x1="-667.44" y1="179.19" x2="-664.9" y2="188.57" gradientTransform="matrix(-1, 0, 0, 1, -292.84, 0)" xlink:href="#radial-gradient-2"/>
    <radialGradient id="radial-gradient-11" cx="-663.07" cy="203.32" r="27.28" gradientTransform="matrix(0.01, -1, -1.68, -0.02, 720.91, -454.78)" xlink:href="#radial-gradient-7"/>
  </defs>
  <g class="cls-1">
    <g id="Layer_1" data-name="Layer 1">
      <path class="cls-2" d="M259.86,308.52c-4.25,1.83-3.33,7.92-7.61,5.87-3.36-1.62-2.22-5.44-1-8.54,1.88-4.64,5.77-8.33,13.74-12.74,2.73,2.83-4.06,8.31,2.14,9.65,3.57.78,3.85-3.66,5.49-5.76,13.1-16.85,32.86-23.19,53.2-16.53,3.09,1,5.46,2.09,8.89.59,18.5-8.08,47.42,1.57,58.72,19.55,3.08,4.88,5.22,9.32,12.48,5.47,8.15-4.32,8.42-3.8,2-17.42,8.29,1.33,17.44,11.4,17.2,19,0,1.4,0,4.09-2,3.23-9.68-4.09-15.3,6.52-23.89,6.23-3.42-.11-5.62,2.24-7.46,5.11-18.08,28-45.59,32.41-75.45,28.68-17.81-2.23-33.58-9.42-43.06-26.34C269.8,318.38,261,316.79,259.86,308.52Z"/>
      <path class="cls-3" d="M374.51,315.5h-85c5.38-14.14,20.52-21.7,33.65-17,5.23,1.88,9.18,1.31,14.12-1,8.46-3.87,16.55.15,24.07,3.81C367.17,304.23,371.51,309.06,374.51,315.5Z"/>
      <path class="cls-3" d="M327.22,330.69A57.58,57.58,0,0,1,289,321.23a25.94,25.94,0,0,1-8.81-9.45c-3-5.51-1.78-8.23,4.68-8,31.76,1.19,63.49,3.29,95.31,2.42,7.67-.21,5.16,4,2.28,7.29-10.05,11.55-23.7,15.46-38.18,17.1C339.22,331.18,334,330.69,327.22,330.69Z"/>
      <path class="cls-4" d="M372.5,311c-13.36,11.66-28.43,15.35-45.32,10.77-2.34-.63-4.64-1.6-4.32-4.68.22-2,2-2.41,3.56-2.28C342,316.22,357,311.42,372.5,311Z"/>
    </g>
    <g id="Layer_2" data-name="Layer 2">
      <path class="cls-5" d="M113.82,173.59c6.39-5.79,10.37-5.88,16.62.35,7.16,7.15,14,14.62,21,22,.34-.22.88-.38,1.08-.73,1.78-3.15,3.76-6.19,8-5.51s5.86,3.92,6.83,7.67c1.48,5.77,3.32,11.46,4.44,17.3.6,3.14,0,6.51-.06,10.13,4.87,3.59,5.87,7.27,1.48,12.93-3.73,4.8-2.92,7.76,1.19,11.5,4.41,4,8,8.88,12.45,12.87,1.43,1.29,4.41,1.63,6.46,1.24,2.32-.44,4.43-2.14,6.58-3.39,6.45-3.77,12.79-7.72,19.34-11.32,2.92-1.6,6.25-1.79,8.59,1.2,2,2.52,1.56,4.7,0,8a23.2,23.2,0,0,1-10.36,10.89q-11.73,6.45-23.92,12.07c-4.45,2.06-8.66,1.08-12.21-2.7s-7.71-7.32-11.33-11.19-6.94-8-10.44-12.1c-6.58,1.68-12.6,13.83-20.19.69C127.27,258.22,119.85,250.3,113,242c-7.64-9.18-15-18.64-21.87-28.38-5-7-3.84-11.78,2.43-17.82.83-.81.69-2.59,1.11-3.89.65-2,.91-5.09,2.2-5.61,4.06-1.65,4.94-4.65,5.92-8.39C104.13,172.87,108.28,171.52,113.82,173.59ZM96.07,197.85c-5.27,4.86-5.84,8.36-2,14.48a129.81,129.81,0,0,0,9.89,13.76c5.8,7,11.82,13.92,18,20.65,4.81,5.26,10.82,7.47,18,5.91a37.53,37.53,0,0,1,5.73-.38l.21.89-3.46,2.25c2.32,3.64,3,4.16,5.88,2.56a58.27,58.27,0,0,0,23.44-24.42c.79-1.5-.26-4-.56-7l-6,7.13-1.34-1c1.18-2.68,2.78-5.26,3.42-8.06.79-3.45,1.45-7.17,1-10.61-.67-4.88-2.33-9.63-3.74-14.39-.86-2.93-1.48-7.39-5.31-6.39-2.19.57-3.57,4.83-4.92,7.62-.5,1,.3,2.6.22,3.91a17.43,17.43,0,0,1-.85,3.38c-1.33-3.53-1.84-7-3.74-9.44-3.48-4.39-7.77-8.14-11.76-12.14-4.21-4.22-8.3-8.6-12.76-12.55-2.66-2.35-5.87-2.32-8.44.56-2.73,3.06.71,4.36,2,6,4.26,5.32,8.74,10.47,13.13,15.69a3,3,0,0,1-3-.95c-4.6-5.46-9.12-11-13.76-16.43-.91-1.07-2.25-2.64-3.29-2.56-2.17.15-5.16.63-6.2,2.11-1.93,2.75-3.13,6.21-.16,9.54,5.07,5.69,10,11.54,14.93,17.32l-1,.87a51.42,51.42,0,0,1-3.84-3.68c-3.48-4-6.7-8.27-10.38-12.09-1.27-1.32-4-2.6-5.34-2.1s-2.88,3.41-2.64,5a16.43,16.43,0,0,0,3.42,7.32c3.76,4.77,7.93,9.22,11.94,13.8a32.72,32.72,0,0,1-8.89-7.16C101.2,204.32,98.79,201.15,96.07,197.85Z"/>
      <path class="cls-6" d="M447.18,217.84c0,131.88-25,138.55-110.74,137.76-91.86,0-110.73-9.83-110.73-137.76,0-76.09,38.29-104.55,110.73-104.55C414.71,113.29,447.18,141.75,447.18,217.84Z"/>
      <path class="cls-7" d="M447.18,217.84c0,131.88-25,138.55-110.74,137.76-91.86,0-110.73-9.83-110.73-137.76,0-76.09,38.29-104.55,110.73-104.55C414.71,113.29,447.18,141.75,447.18,217.84Z"/>
      <g>
        <path class="cls-8" d="M252.35,267.63c0,.84-1.27,1.52-2.83,1.52s-2.82-.68-2.82-1.52,1.26-1.53,2.82-1.53S252.35,266.79,252.35,267.63Z"/>
        <path class="cls-8" d="M259.86,271.05c0,.53-.81,1-1.8,1s-1.81-.44-1.81-1,.81-1,1.81-1S259.86,270.51,259.86,271.05Z"/>
        <path class="cls-8" d="M245.16,273.22c0,.38-.57.69-1.28.69s-1.28-.31-1.28-.69.57-.69,1.28-.69S245.16,272.84,245.16,273.22Z"/>
        <path class="cls-8" d="M276.49,268.57c0,.38-.57.69-1.28.69s-1.28-.31-1.28-.69.57-.69,1.28-.69S276.49,268.19,276.49,268.57Z"/>
        <path class="cls-8" d="M258.09,277c0,.55-.82,1-1.84,1s-1.83-.44-1.83-1,.83-1,1.83-1S258.09,276.42,258.09,277Z"/>
      </g>
      <g>
        <path class="cls-8" d="M417.67,266.77c0,.84,1.27,1.52,2.83,1.52s2.82-.68,2.82-1.52-1.26-1.52-2.82-1.52S417.67,265.93,417.67,266.77Z"/>
        <path class="cls-8" d="M410.16,270.19c0,.53.81,1,1.8,1s1.81-.44,1.81-1-.81-1-1.81-1S410.16,269.65,410.16,270.19Z"/>
        <path class="cls-8" d="M424.85,272.36c0,.38.58.69,1.29.69s1.28-.31,1.28-.69-.57-.69-1.28-.69S424.85,272,424.85,272.36Z"/>
        <path class="cls-8" d="M393.53,267.71c0,.38.57.69,1.28.69s1.28-.31,1.28-.69-.57-.69-1.28-.69S393.53,267.33,393.53,267.71Z"/>
        <path class="cls-8" d="M411.93,276.1c0,.55.82,1,1.84,1s1.83-.44,1.83-1-.82-1-1.83-1S411.93,275.56,411.93,276.1Z"/>
      </g>
      <g>
        <path class="cls-9" d="M336.44,355.6c85.76.79,110.74-5.88,110.74-137.76,0-30.1-5.11-52.72-16.1-69.1l-1,0a8.09,8.09,0,0,0,.08-1.47c-17-24-47.28-34-93.69-34-72.44,0-110.73,28.46-110.73,104.55C225.71,345.77,244.58,355.6,336.44,355.6Zm-87.95-65.75c-2.17.9-5,3.86-5,3.86s2.43-9.13-.69-8.71a52.21,52.21,0,0,0-5.75,1.1s-8.13-35-7-62.23c0,0-.14-23.71,11.1-39.13,0,0,31.89-23.07,17.9-27.87,0,0,13.74,4.45,27.27,4.45s71.2-11.86,90.86-9.19,28.41,12.45,28.41,12.45,14.15-2.08,19.57-8.3c0,0-2.31,5.63-5.32,7.41s2.61,12,13.23,18.09c0,0,6.66,15.71,7.49,33.06s-1.38,56.27-10.47,77.87c0,0,.82-2.57-.91-2.86s-3.19,1.94-3.19,1.94-2.3-4.45-6.15-4.45,0,2.51,0,2.51-14-5.77-19.45-5c0,0-22.9-7.86-45.8-8.45,0,0-16.33,6.22-42-.11,0,0-27.56,3.22-44,14.34,0,0-4.16-1.5-4.37-.75s1.24,2.53,1.24,2.53-7.49-3.26-8.74-1.93,1.25,3.26,1.25,3.26S250.67,289,248.49,289.85Z"/>
        <g>
          <path class="cls-10" d="M219.39,161.24a1.07,1.07,0,1,1-1-.82A.95.95,0,0,1,219.39,161.24Z"/>
          <path class="cls-11" d="M452.17,241.42s10.82-5.35,10-8.37-11.24,3.7-11.24,3.7,21.1-96.46-20.46-94c0,0,2.61-12.26-19.61-22.74s-63.3-17-93-16-98.72,13.56-78.57,36c0,0-16.49,6.72-23.56,18.88s5,77.88,5,77.88S217,233,215.09,234.5s1.87,5.15,1.87,5.15-12.69-5.15-14.77-3.45,15.2,6.78,15.2,6.78-5.42.4-4.17,2.32,8.32,1.93,8.32,1.93-5.76,7.15-3.19,9.88a10.29,10.29,0,0,0,5.06,3.17s-6.24,11.31-3.74,13.14a42.64,42.64,0,0,1,6,6.28s-9.1,6.67-6.19,8a29.63,29.63,0,0,0,7.64,1.78s-9.1,4-7,7.11a27,27,0,0,0,5.63,5.69s-11.1,2.37-10,6.52S227.1,313,227.1,313s-6.22,8.7-1.45,12.26S237.44,329,237.44,329s-8.12,6.92-5.35,8.7,10.55,1.78,10.55,1.78-2.19,13.05,6.67,14.63,24.13,1.57,24.13,1.57,1.28,6.33,8.83,6.33a144.24,144.24,0,0,0,17.82-1.58s8.94,6,16.19,6.33,18.5-3.86,18.5-3.86a37.21,37.21,0,0,0,10.32,3.87c5.08.88,5.29-4.16,5.29-4.16s8.83,5,12.64,4.27-1.84-5.76-1.84-5.76,16.72,4.16,28.25,1.78S401,353.68,401,353.68s8.47,2.67,16.51.89,5.89-9.78,5.89-9.78,6.32.29,10.9-3-3.81-5.93-3.81-5.93,15.05-3.26,19.22-13.34S446.34,308,446.34,308s7.63-4.46,8.75-10.08-8.75.59-8.75.59,8.75-7.41,8.75-9.19-7.31-4.15-7.31-4.15,7.31-2.95,7.31-8.3-5.83-8.3-5.83-8.3,4.34-4.55,5.91-9.25-7.39-2.23-7.39-2.23,11.47-3.65,14.38-7.51-8.74-1.78-8.74-1.78,10.08-1.81,11.49-4S452.17,241.42,452.17,241.42Zm-21.71,45.29s.83-2.58-.91-2.87-3.19,1.94-3.19,1.94-2.3-4.45-6.14-4.45,0,2.51,0,2.51-14.05-5.77-19.46-5c0,0-22.9-7.86-45.79-8.45,0,0-16.34,6.22-42-.11,0,0-27.56,3.22-44,14.34,0,0-4.16-1.49-4.37-.75s1.25,2.53,1.25,2.53-7.5-3.26-8.75-1.93,1.25,3.27,1.25,3.27-7.3-4.76-9.48-3.87-5,3.87-5,3.87,2.43-9.13-.69-8.72a52.21,52.21,0,0,0-5.75,1.1s-8.12-35-7-62.23c0,0-.15-23.71,11.1-39.12,0,0,31.88-23.07,17.9-27.88,0,0,13.73,4.45,27.26,4.45s71.2-11.86,90.87-9.19S406,158.57,406,158.57s14.16-2.07,19.57-8.3c0,0-2.3,5.63-5.31,7.41s2.6,12,13.22,18.09c0,0,6.66,15.72,7.49,33.06S439.55,265.1,430.46,286.71Z"/>
          <path class="cls-12" d="M452.17,241.42s10.82-5.35,10-8.37-11.24,3.7-11.24,3.7,21.1-96.46-20.46-94c0,0,2.61-12.26-19.61-22.74s-63.3-17-93-16-98.72,13.56-78.57,36c0,0-16.49,6.72-23.56,18.88s5,77.88,5,77.88S217,233,215.09,234.5s1.87,5.15,1.87,5.15-12.69-5.15-14.77-3.45,15.2,6.78,15.2,6.78-5.42.4-4.17,2.32,8.32,1.93,8.32,1.93-5.76,7.15-3.19,9.88a10.29,10.29,0,0,0,5.06,3.17s-6.24,11.31-3.74,13.14a42.64,42.64,0,0,1,6,6.28s-9.1,6.67-6.19,8a29.63,29.63,0,0,0,7.64,1.78s-9.1,4-7,7.11a27,27,0,0,0,5.63,5.69s-11.1,2.37-10,6.52S227.1,313,227.1,313s-6.22,8.7-1.45,12.26S237.44,329,237.44,329s-8.12,6.92-5.35,8.7,10.55,1.78,10.55,1.78-2.19,13.05,6.67,14.63,24.13,1.57,24.13,1.57,1.28,6.33,8.83,6.33a144.24,144.24,0,0,0,17.82-1.58s8.94,6,16.19,6.33,18.5-3.86,18.5-3.86a37.21,37.21,0,0,0,10.32,3.87c5.08.88,5.29-4.16,5.29-4.16s8.83,5,12.64,4.27-1.84-5.76-1.84-5.76,16.72,4.16,28.25,1.78S401,353.68,401,353.68s8.47,2.67,16.51.89,5.89-9.78,5.89-9.78,6.32.29,10.9-3-3.81-5.93-3.81-5.93,15.05-3.26,19.22-13.34S446.34,308,446.34,308s7.63-4.46,8.75-10.08-8.75.59-8.75.59,8.75-7.41,8.75-9.19-7.31-4.15-7.31-4.15,7.31-2.95,7.31-8.3-5.83-8.3-5.83-8.3,4.34-4.55,5.91-9.25-7.39-2.23-7.39-2.23,11.47-3.65,14.38-7.51-8.74-1.78-8.74-1.78,10.08-1.81,11.49-4S452.17,241.42,452.17,241.42Zm-21.71,45.29s.83-2.58-.91-2.87-3.19,1.94-3.19,1.94-2.3-4.45-6.14-4.45,0,2.51,0,2.51-14.05-5.77-19.46-5c0,0-22.9-7.86-45.79-8.45,0,0-16.34,6.22-42-.11,0,0-27.56,3.22-44,14.34,0,0-4.16-1.49-4.37-.75s1.25,2.53,1.25,2.53-7.5-3.26-8.75-1.93,1.25,3.27,1.25,3.27-7.3-4.76-9.48-3.87-5,3.87-5,3.87,2.43-9.13-.69-8.72a52.21,52.21,0,0,0-5.75,1.1s-8.12-35-7-62.23c0,0-.15-23.71,11.1-39.12,0,0,31.88-23.07,17.9-27.88,0,0,13.73,4.45,27.26,4.45s71.2-11.86,90.87-9.19S406,158.57,406,158.57s14.16-2.07,19.57-8.3c0,0-2.3,5.63-5.31,7.41s2.6,12,13.22,18.09c0,0,6.66,15.72,7.49,33.06S439.55,265.1,430.46,286.71Z"/>
          <path class="cls-12" d="M452.17,241.42s10.82-5.35,10-8.37-11.24,3.7-11.24,3.7,21.1-96.46-20.46-94c0,0,2.61-12.26-19.61-22.74s-63.3-17-93-16-98.72,13.56-78.57,36c0,0-16.49,6.72-23.56,18.88s5,77.88,5,77.88S217,233,215.09,234.5s1.87,5.15,1.87,5.15-12.69-5.15-14.77-3.45,15.2,6.78,15.2,6.78-5.42.4-4.17,2.32,8.32,1.93,8.32,1.93-5.76,7.15-3.19,9.88a10.29,10.29,0,0,0,5.06,3.17s-6.24,11.31-3.74,13.14a42.64,42.64,0,0,1,6,6.28s-9.1,6.67-6.19,8a29.63,29.63,0,0,0,7.64,1.78s-9.1,4-7,7.11a27,27,0,0,0,5.63,5.69s-11.1,2.37-10,6.52S227.1,313,227.1,313s-6.22,8.7-1.45,12.26S237.44,329,237.44,329s-8.12,6.92-5.35,8.7,10.55,1.78,10.55,1.78-2.19,13.05,6.67,14.63,24.13,1.57,24.13,1.57,1.28,6.33,8.83,6.33a144.24,144.24,0,0,0,17.82-1.58s8.94,6,16.19,6.33,18.5-3.86,18.5-3.86a37.21,37.21,0,0,0,10.32,3.87c5.08.88,5.29-4.16,5.29-4.16s8.83,5,12.64,4.27-1.84-5.76-1.84-5.76,16.72,4.16,28.25,1.78S401,353.68,401,353.68s8.47,2.67,16.51.89,5.89-9.78,5.89-9.78,6.32.29,10.9-3-3.81-5.93-3.81-5.93,15.05-3.26,19.22-13.34S446.34,308,446.34,308s7.63-4.46,8.75-10.08-8.75.59-8.75.59,8.75-7.41,8.75-9.19-7.31-4.15-7.31-4.15,7.31-2.95,7.31-8.3-5.83-8.3-5.83-8.3,4.34-4.55,5.91-9.25-7.39-2.23-7.39-2.23,11.47-3.65,14.38-7.51-8.74-1.78-8.74-1.78,10.08-1.81,11.49-4S452.17,241.42,452.17,241.42Zm-21.71,45.29s.83-2.58-.91-2.87-3.19,1.94-3.19,1.94-2.3-4.45-6.14-4.45,0,2.51,0,2.51-14.05-5.77-19.46-5c0,0-22.9-7.86-45.79-8.45,0,0-16.34,6.22-42-.11,0,0-27.56,3.22-44,14.34,0,0-4.16-1.49-4.37-.75s1.25,2.53,1.25,2.53-7.5-3.26-8.75-1.93,1.25,3.27,1.25,3.27-7.3-4.76-9.48-3.87-5,3.87-5,3.87,2.43-9.13-.69-8.72a52.21,52.21,0,0,0-5.75,1.1s-8.12-35-7-62.23c0,0-.15-23.71,11.1-39.12,0,0,31.88-23.07,17.9-27.88,0,0,13.73,4.45,27.26,4.45s71.2-11.86,90.87-9.19S406,158.57,406,158.57s14.16-2.07,19.57-8.3c0,0-2.3,5.63-5.31,7.41s2.6,12,13.22,18.09c0,0,6.66,15.72,7.49,33.06S439.55,265.1,430.46,286.71Z"/>
          <path class="cls-13" d="M452.17,241.42s10.82-5.35,10-8.37-11.24,3.7-11.24,3.7,21.1-96.46-20.46-94c0,0,2.61-12.26-19.61-22.74s-63.3-17-93-16-98.72,13.56-78.57,36c0,0-16.49,6.72-23.56,18.88s5,77.88,5,77.88S217,233,215.09,234.5s1.87,5.15,1.87,5.15-12.69-5.15-14.77-3.45,15.2,6.78,15.2,6.78-5.42.4-4.17,2.32,8.32,1.93,8.32,1.93-5.76,7.15-3.19,9.88a10.29,10.29,0,0,0,5.06,3.17s-6.24,11.31-3.74,13.14a42.64,42.64,0,0,1,6,6.28s-9.1,6.67-6.19,8a29.63,29.63,0,0,0,7.64,1.78s-9.1,4-7,7.11a27,27,0,0,0,5.63,5.69s-11.1,2.37-10,6.52S227.1,313,227.1,313s-6.22,8.7-1.45,12.26S237.44,329,237.44,329s-8.12,6.92-5.35,8.7,10.55,1.78,10.55,1.78-2.19,13.05,6.67,14.63,24.13,1.57,24.13,1.57,1.28,6.33,8.83,6.33a144.24,144.24,0,0,0,17.82-1.58s8.94,6,16.19,6.33,18.5-3.86,18.5-3.86a37.21,37.21,0,0,0,10.32,3.87c5.08.88,5.29-4.16,5.29-4.16s8.83,5,12.64,4.27-1.84-5.76-1.84-5.76,16.72,4.16,28.25,1.78S401,353.68,401,353.68s8.47,2.67,16.51.89,5.89-9.78,5.89-9.78,6.32.29,10.9-3-3.81-5.93-3.81-5.93,15.05-3.26,19.22-13.34S446.34,308,446.34,308s7.63-4.46,8.75-10.08-8.75.59-8.75.59,8.75-7.41,8.75-9.19-7.31-4.15-7.31-4.15,7.31-2.95,7.31-8.3-5.83-8.3-5.83-8.3,4.34-4.55,5.91-9.25-7.39-2.23-7.39-2.23,11.47-3.65,14.38-7.51-8.74-1.78-8.74-1.78,10.08-1.81,11.49-4S452.17,241.42,452.17,241.42Zm-21.71,45.29s.83-2.58-.91-2.87-3.19,1.94-3.19,1.94-2.3-4.45-6.14-4.45,0,2.51,0,2.51-14.05-5.77-19.46-5c0,0-22.9-7.86-45.79-8.45,0,0-16.34,6.22-42-.11,0,0-27.56,3.22-44,14.34,0,0-4.16-1.49-4.37-.75s1.25,2.53,1.25,2.53-7.5-3.26-8.75-1.93,1.25,3.27,1.25,3.27-7.3-4.76-9.48-3.87-5,3.87-5,3.87,2.43-9.13-.69-8.72a52.21,52.21,0,0,0-5.75,1.1s-8.12-35-7-62.23c0,0-.15-23.71,11.1-39.12,0,0,31.88-23.07,17.9-27.88,0,0,13.73,4.45,27.26,4.45s71.2-11.86,90.87-9.19S406,158.57,406,158.57s14.16-2.07,19.57-8.3c0,0-2.3,5.63-5.31,7.41s2.6,12,13.22,18.09c0,0,6.66,15.72,7.49,33.06S439.55,265.1,430.46,286.71Z"/>
        </g>
        <path class="cls-14" d="M276.26,112.12s-34.71,7.71-35.84,17.79,19.64,20.75,43,22.73,68-15,98.84-8.5c0,0-13.44-4.35-31.42-2s-50.65,8.7-63.32,7.12S289,141,289,141s-8.75,3.16-10.08,5.14c0,0-3.44-8.54,8.85-13.66,0,0-20.09,4.76-22.85,10.3,0,0,2.4-6.72,4.62-7.71,0,0-8.88,3.56-8.88,5.53,0,0-8.33-5.14-4.45-10.47,0,0-4.71,3.75-3.05,6.32C253.18,136.43,236.89,122.6,276.26,112.12Z"/>
      </g>
      <g>
        <path class="cls-15" d="M304.54,174.69s42.2.16,74.16-5.06C378.7,169.63,322,179.24,304.54,174.69Z"/>
        <path class="cls-16" d="M294.55,168.73s38.43,1.06,56.62-.91C351.17,167.82,337.5,171.87,294.55,168.73Z"/>
      </g>
      <g>
        <path class="cls-17" d="M415.57,202.62a227.89,227.89,0,0,0-32.41-5.73c-1.2-.15-2.44-.29-3.75-.39l-.58,0-.64-.06.1,0c-14-.92-24.09,1.85-29.92,8.3-4.08,4.52-5.62,10.22-5.94,15.88a39.51,39.51,0,0,0-.21,4.2l-1.17-.33.05-.16a33.88,33.88,0,0,0-19.12.5,41.87,41.87,0,0,0-.26-4.18c-.38-5.67-2-11.35-6.12-15.83-5.89-6.39-16-9-30-8l.1,0-.63.07-.59,0c-1.31.12-2.54.27-3.74.44a229.1,229.1,0,0,0-32.35,6.08c-1.15,3.95-.41,9.57-.41,9.57h0c.06,1,.15,1.73.15,1.73s2.85-1.65,3.57.21c-.17,4.2.55,15.11.55,15.11h0c.1,3.14.38,6.29.65,9.3l0,.14c0,.52.08,1.07.13,1.59,1.59,17.6,16,27.32,37.69,25.36,18.75-1.7,26.65-9.52,30.16-29.91.2-1.2.4-2.47.57-3.8a26.48,26.48,0,0,1,6.34-1.85,28.73,28.73,0,0,1,15,1.83c.19,1.32.4,2.6.62,3.8,3.72,20.34,11.7,28.08,30.48,29.57,21.68,1.72,36-8.16,37.41-25.77,0-.51.08-1,.11-1.55l0-.18c.23-3,.48-6.17.55-9.32h0s.6-10.91.39-15.11c.69-1.88,3.57-.25,3.57-.25s.08-.7.13-1.74h0S416.77,206.55,415.57,202.62Z"/>
        <g>
          <g>
            <path class="cls-18" d="M318,220.59c1.69,18.6-8,39.08-26.3,40.74-27.21,2.47-34.32-9.88-36-28.47s6.53-31.17,24.87-32.83S316.34,202,318,220.59Z"/>
            <path class="cls-19" d="M321.76,225.78c.18-7-1.06-14.45-6.23-20.06-5.89-6.38-16-9-30-8l.1,0-.63.07-.59,0c-1.3.12-2.54.27-3.74.43a227.79,227.79,0,0,0-32.34,6.09c-1.16,3.94-.41,9.57-.41,9.57s4-2.34,3.74,1.52.53,15.52.53,15.52h0c.11,3.15.39,6.29.66,9.3,1.6,17.61,16,27.32,37.69,25.36,18.76-1.69,26.65-9.52,30.16-29.9q.31-1.82.57-3.81a28.7,28.7,0,0,1,18.1-1.38l.83-2.65.84-2.65A34,34,0,0,0,321.76,225.78Zm-6.54,9c-3.09,17.94-9,23.85-25.18,25.32-8.9.8-29.78.43-31.66-20.33-1.64-18.09-3-33.72,26.52-36.4,12.8-1.16,21.73.91,26.55,6.13C316.11,214.55,317.31,222.58,315.22,234.77Z"/>
            <path class="cls-20" d="M321.76,225.78c.18-7-1.06-14.45-6.23-20.06-5.89-6.38-16-9-30-8l.1,0-.63.07-.59,0c-1.3.12-2.54.27-3.74.43a227.79,227.79,0,0,0-32.34,6.09c-1.16,3.94-.41,9.57-.41,9.57s4-2.34,3.74,1.52.53,15.52.53,15.52h0c.11,3.15.39,6.29.66,9.3,1.6,17.61,16,27.32,37.69,25.36,18.76-1.69,26.65-9.52,30.16-29.9q.31-1.82.57-3.81a28.7,28.7,0,0,1,18.1-1.38l.83-2.65.84-2.65A34,34,0,0,0,321.76,225.78Zm-6.54,9c-3.09,17.94-9,23.85-25.18,25.32-8.9.8-29.78.43-31.66-20.33-1.64-18.09-3-33.72,26.52-36.4,12.8-1.16,21.73.91,26.55,6.13C316.11,214.55,317.31,222.58,315.22,234.77Z"/>
            <path class="cls-19" d="M321.6,224.05c.18-7-1.06-14.45-6.22-20.05-5.9-6.39-16-9.05-30-8l.1,0-.62.06-.6,0c-1.3.12-2.54.27-3.74.43a227.79,227.79,0,0,0-32.34,6.09c-1.16,3.94-.42,9.57-.42,9.57s4-2.34,3.75,1.52.54,15.52.54,15.52h0c.11,3.15.38,6.29.66,9.3,1.59,17.61,16,27.33,37.69,25.36,18.75-1.69,26.64-9.52,30.16-29.9.2-1.2.39-2.48.57-3.8a28.72,28.72,0,0,1,18.09-1.39l.83-2.65.84-2.64A33.8,33.8,0,0,0,321.6,224.05Zm-6.54,9c-3.09,17.94-9,23.85-25.18,25.32-8.9.81-29.78.43-31.66-20.33-1.64-18.09-3.05-33.72,26.52-36.4,12.8-1.16,21.73.91,26.55,6.13C316,212.82,317.15,220.85,315.06,233Z"/>
            <path class="cls-20" d="M321.6,224.05c.18-7-1.06-14.45-6.22-20.05-5.9-6.39-16-9.05-30-8l.1,0-.62.06-.6,0c-1.3.12-2.54.27-3.74.43a227.79,227.79,0,0,0-32.34,6.09c-1.16,3.94-.42,9.57-.42,9.57s4-2.34,3.75,1.52.54,15.52.54,15.52h0c.11,3.15.38,6.29.66,9.3,1.59,17.61,16,27.33,37.69,25.36,18.75-1.69,26.64-9.52,30.16-29.9.2-1.2.39-2.48.57-3.8a28.72,28.72,0,0,1,18.09-1.39l.83-2.65.84-2.64A33.8,33.8,0,0,0,321.6,224.05Zm-6.54,9c-3.09,17.94-9,23.85-25.18,25.32-8.9.81-29.78.43-31.66-20.33-1.64-18.09-3.05-33.72,26.52-36.4,12.8-1.16,21.73.91,26.55,6.13C316,212.82,317.15,220.85,315.06,233Z"/>
            <g>
              <path class="cls-21" d="M258.91,206.55a2.81,2.81,0,1,1-3-2.11A2.6,2.6,0,0,1,258.91,206.55Z"/>
              <path class="cls-19" d="M259.27,206a2.81,2.81,0,1,1-3-2.11A2.58,2.58,0,0,1,259.27,206Z"/>
              <path class="cls-19" d="M259.23,205.48a2.82,2.82,0,1,1-3-2.11A2.6,2.6,0,0,1,259.23,205.48Z"/>
              <path class="cls-19" d="M259.23,205.48a2.82,2.82,0,1,1-3-2.11A2.6,2.6,0,0,1,259.23,205.48Z"/>
            </g>
          </g>
          <g>
            <path class="cls-18" d="M345.67,220.54c-1.47,18.61,8.41,39,26.77,40.45,27.23,2.16,34.2-10.26,35.68-28.88s-6.88-31.08-25.24-32.54S347.16,201.93,345.67,220.54Z"/>
            <path class="cls-19" d="M324.59,229h0l-.13,1.74a28.56,28.56,0,0,1,18.1,1.18c.19,1.32.4,2.6.62,3.79,3.73,20.35,11.71,28.09,30.48,29.58,21.68,1.72,36-8.16,37.41-25.78.24-3,.48-6.16.56-9.31h0s.64-11.67.37-15.53,3.72-1.56,3.72-1.56.68-5.64-.52-9.56a227.54,227.54,0,0,0-32.4-5.73c-1.2-.15-2.44-.29-3.75-.39l-.59,0-.63-.06.09,0c-14-.92-24.09,1.84-29.91,8.29-5.11,5.66-6.27,13.16-6,20.13A18.87,18.87,0,0,0,324.59,229Zm27.54-19.61c4.77-5.28,13.68-7.44,26.48-6.42,29.6,2.34,28.36,18,26.92,36.1-1.64,20.78-22.52,21.38-31.43,20.68-16.23-1.29-22.17-7.14-25.45-25C346.42,222.52,347.52,214.47,352.13,209.37Z"/>
            <path class="cls-20" d="M324.59,229h0l-.13,1.74a28.56,28.56,0,0,1,18.1,1.18c.19,1.32.4,2.6.62,3.79,3.73,20.35,11.71,28.09,30.48,29.58,21.68,1.72,36-8.16,37.41-25.78.24-3,.48-6.16.56-9.31h0s.64-11.67.37-15.53,3.72-1.56,3.72-1.56.68-5.64-.52-9.56a227.54,227.54,0,0,0-32.4-5.73c-1.2-.15-2.44-.29-3.75-.39l-.59,0-.63-.06.09,0c-14-.92-24.09,1.84-29.91,8.29-5.11,5.66-6.27,13.16-6,20.13A18.87,18.87,0,0,0,324.59,229Zm27.54-19.61c4.77-5.28,13.68-7.44,26.48-6.42,29.6,2.34,28.36,18,26.92,36.1-1.64,20.78-22.52,21.38-31.43,20.68-16.23-1.29-22.17-7.14-25.45-25C346.42,222.52,347.52,214.47,352.13,209.37Z"/>
            <path class="cls-19" d="M322.86,223.7l.87,2.64.86,2.64a28.72,28.72,0,0,1,18.11,1.19c.19,1.32.4,2.59.62,3.79C347.05,254.31,355,262,373.8,263.53c21.68,1.73,36-8.15,37.41-25.77.24-3,.49-6.16.55-9.31h0s.65-11.67.37-15.53,3.73-1.56,3.73-1.56.68-5.64-.52-9.56a227.9,227.9,0,0,0-32.4-5.73c-1.21-.15-2.45-.29-3.75-.39l-.59,0-.63,0,.09,0c-14-.92-24.09,1.84-29.92,8.29-5.11,5.66-6.26,13.15-6,20.13A34,34,0,0,0,322.86,223.7Zm29.41-16.07c4.76-5.27,13.67-7.43,26.47-6.42,29.61,2.35,28.36,18,26.93,36.11C404,258.1,383.15,258.7,374.24,258c-16.22-1.28-22.18-7.13-25.46-25C346.55,220.79,347.66,212.74,352.27,207.63Z"/>
            <path class="cls-20" d="M322.86,223.7l.87,2.64.86,2.64a28.72,28.72,0,0,1,18.11,1.19c.19,1.32.4,2.59.62,3.79C347.05,254.31,355,262,373.8,263.53c21.68,1.73,36-8.15,37.41-25.77.24-3,.49-6.16.55-9.31h0s.65-11.67.37-15.53,3.73-1.56,3.73-1.56.68-5.64-.52-9.56a227.9,227.9,0,0,0-32.4-5.73c-1.21-.15-2.45-.29-3.75-.39l-.59,0-.63,0,.09,0c-14-.92-24.09,1.84-29.92,8.29-5.11,5.66-6.26,13.15-6,20.13A34,34,0,0,0,322.86,223.7Zm29.41-16.07c4.76-5.27,13.67-7.43,26.47-6.42,29.61,2.35,28.36,18,26.93,36.11C404,258.1,383.15,258.7,374.24,258c-16.22-1.28-22.18-7.13-25.46-25C346.55,220.79,347.66,212.74,352.27,207.63Z"/>
            <g>
              <path class="cls-21" d="M404.63,205.85a2.81,2.81,0,1,0,3-2.14A2.61,2.61,0,0,0,404.63,205.85Z"/>
              <path class="cls-19" d="M404.26,205.3a2.81,2.81,0,1,0,3-2.15A2.59,2.59,0,0,0,404.26,205.3Z"/>
              <path class="cls-19" d="M404.3,204.78a2.82,2.82,0,1,0,3-2.15A2.62,2.62,0,0,0,404.3,204.78Z"/>
              <path class="cls-19" d="M404.3,204.78a2.82,2.82,0,1,0,3-2.15A2.62,2.62,0,0,0,404.3,204.78Z"/>
            </g>
          </g>
        </g>
      </g>
      <path class="cls-3" d="M96.07,197.85c2.72,3.3,5.13,6.47,7.81,9.4a32.72,32.72,0,0,0,8.89,7.16c-4-4.58-8.18-9-11.94-13.8a16.43,16.43,0,0,1-3.42-7.32c-.24-1.59,1.26-4.49,2.64-5s4.07.78,5.34,2.1c3.68,3.82,6.9,8.08,10.38,12.09a51.42,51.42,0,0,0,3.84,3.68l1-.87c-5-5.78-9.86-11.63-14.93-17.32-3-3.33-1.77-6.79.16-9.54,1-1.48,4-2,6.2-2.11,1-.08,2.38,1.49,3.29,2.56,4.64,5.44,9.16,11,13.76,16.43a3,3,0,0,0,3,.95c-4.39-5.22-8.87-10.37-13.13-15.69-1.34-1.67-4.78-3-2-6,2.57-2.88,5.78-2.91,8.44-.56,4.46,4,8.55,8.33,12.76,12.55,4,4,8.28,7.75,11.76,12.14,1.9,2.4,2.41,5.91,3.74,9.44a17.43,17.43,0,0,0,.85-3.38c.08-1.31-.72-2.89-.22-3.91,1.35-2.79,2.73-7,4.92-7.62,3.83-1,4.45,3.46,5.31,6.39,1.41,4.76,3.07,9.51,3.74,14.39.47,3.44-.19,7.16-1,10.61-.64,2.8-2.24,5.38-3.42,8.06l1.34,1,6-7.13c.3,3,1.35,5.49.56,7A58.27,58.27,0,0,1,148.3,258c-2.89,1.6-3.56,1.08-5.88-2.56l3.46-2.25-.21-.89a37.53,37.53,0,0,0-5.73.38c-7.2,1.56-13.21-.65-18-5.91-6.16-6.73-12.18-13.61-18-20.65a129.81,129.81,0,0,1-9.89-13.76C90.23,206.21,90.8,202.71,96.07,197.85Zm20.65,31.28,1.22,1,23.45-27.43-1.47-1.23Zm33.15-14.92c-7.83,2.87-9.92,11.85-4.52,19C142.41,225.8,144.35,219.63,149.87,214.21Z"/>
      <g>
        <g>
          <g>
            <path class="cls-22" d="M310.17,232.43c0,15.76-10.61,28.53-23.72,28.53s-23.73-12.77-23.73-28.53,10.63-28.53,23.73-28.53S310.17,216.68,310.17,232.43Z"/>
            <path class="cls-23" d="M310.17,231.6c0,15.29-10.61,27.69-23.72,27.69s-23.73-12.4-23.73-27.69,10.63-27.7,23.73-27.7S310.17,216.3,310.17,231.6Z"/>
            <path class="cls-24" d="M310.17,231.6c0,15.29-10.61,27.69-23.72,27.69s-23.73-12.4-23.73-27.69,10.63-27.7,23.73-27.7S310.17,216.3,310.17,231.6Z"/>
          </g>
          <g>
            <path class="cls-25" d="M296.78,231.9c0,6.67-4.62,12.07-10.33,12.07s-10.35-5.4-10.35-12.07,4.64-12.06,10.35-12.06S296.78,225.24,296.78,231.9Z"/>
            <path class="cls-26" d="M296.78,231.9c0,6.67-4.62,12.07-10.33,12.07s-10.35-5.4-10.35-12.07,4.64-12.06,10.35-12.06S296.78,225.24,296.78,231.9Z"/>
            <path class="cls-27" d="M293.25,231.9c0,4.39-3.05,7.94-6.8,7.94s-6.8-3.55-6.8-7.94,3.05-7.93,6.8-7.93S293.25,227.53,293.25,231.9Z"/>
            <path class="cls-28" d="M290.68,231.9c0,2.73-1.9,4.94-4.23,4.94s-4.24-2.21-4.24-4.94,1.9-4.93,4.24-4.93S290.68,229.18,290.68,231.9Z"/>
            <path class="cls-29" d="M296.78,231.9c0-6.66-4.62-12.06-10.33-12.06-5.48,0-9.92,5-10.27,11.29l19.35,6.41A13.4,13.4,0,0,0,296.78,231.9Z"/>
            <path class="cls-23" d="M291.85,230.63c0,.41-.64.75-1.45.75S289,231,289,230.63s.64-.75,1.45-.75S291.85,230.21,291.85,230.63Z"/>
            <path class="cls-23" d="M291.23,233.08c-.05.21-.43.31-.84.22s-.71-.34-.66-.56.41-.31.82-.22S291.27,232.86,291.23,233.08Z"/>
          </g>
          <path class="cls-30" d="M268.84,202.94s15.27-12,27.5-5.4C296.34,197.54,286.47,186.26,268.84,202.94Z"/>
        </g>
        <g>
          <path class="cls-31" d="M263,201.72s17.1-9.35,37.6-9.95c0,0,6.76-16.7,5.37-20.08s-7.37,3.18-7.37,3.18-2.16-7.16-5.55-7,2,6,2,6-7.69-4.57-11-1.79,3.23,2.59,3.23,2.59-13.72,1.39-13.72,3.78,3.38,2.19,3.38,2.19-12.13,5-13.93,9S263,201.72,263,201.72Z"/>
          <path class="cls-11" d="M264.37,199.33S281.48,190,302,189.39c0,0,6.77-16.71,5.37-20.09s-7.36,3.18-7.36,3.18-2.16-7.16-5.56-7,2,6,2,6-7.69-4.57-11-1.78,3.23,2.58,3.23,2.58-13.72,1.39-13.72,3.78,3.38,2.19,3.38,2.19-12.14,5-13.92,8.95S264.37,199.33,264.37,199.33Z"/>
          <path class="cls-32" d="M264.37,199.33S281.48,190,302,189.39c0,0,6.77-16.71,5.37-20.09s-7.36,3.18-7.36,3.18-2.16-7.16-5.56-7,2,6,2,6-7.69-4.57-11-1.78,3.23,2.58,3.23,2.58-13.72,1.39-13.72,3.78,3.38,2.19,3.38,2.19-12.14,5-13.92,8.95S264.37,199.33,264.37,199.33Z"/>
          <path class="cls-33" d="M264.37,199.33S281.48,190,302,189.39c0,0,6.77-16.71,5.37-20.09s-7.36,3.18-7.36,3.18-2.16-7.16-5.56-7,2,6,2,6-7.69-4.57-11-1.78,3.23,2.58,3.23,2.58-13.72,1.39-13.72,3.78,3.38,2.19,3.38,2.19-12.14,5-13.92,8.95S264.37,199.33,264.37,199.33Z"/>
        </g>
      </g>
      <g>
        <g>
          <path class="cls-34" d="M397.25,229.21c0,15.47-10.43,28-23.29,28s-23.3-12.54-23.3-28,10.42-28,23.3-28S397.25,213.74,397.25,229.21Z"/>
          <path class="cls-23" d="M397.25,228.38c0,15-10.43,27.19-23.29,27.19s-23.3-12.17-23.3-27.19S361.08,201.2,374,201.2,397.25,213.37,397.25,228.38Z"/>
          <path class="cls-35" d="M397.25,228.38c0,15-10.43,27.19-23.29,27.19s-23.3-12.17-23.3-27.19S361.08,201.2,374,201.2,397.25,213.37,397.25,228.38Z"/>
        </g>
        <g>
          <path class="cls-25" d="M384.1,228.69c0,6.54-4.54,11.84-10.14,11.84s-10.16-5.3-10.16-11.84,4.54-11.84,10.16-11.84S384.1,222.15,384.1,228.69Z"/>
          <path class="cls-36" d="M384.17,228.61c0,6.54-4.54,11.84-10.15,11.84s-10.15-5.3-10.15-11.84,4.55-11.84,10.15-11.84S384.17,222.07,384.17,228.61Z"/>
          <path class="cls-37" d="M380.62,228.69c0,4.3-3,7.79-6.66,7.79s-6.67-3.49-6.67-7.79,3-7.79,6.67-7.79S380.62,224.39,380.62,228.69Z"/>
          <path class="cls-28" d="M378.1,228.69c0,2.68-1.86,4.85-4.14,4.85s-4.17-2.17-4.17-4.85,1.87-4.85,4.17-4.85S378.1,226,378.1,228.69Z"/>
          <path class="cls-38" d="M384.1,228.69c0-6.54-4.54-11.84-10.14-11.84-5.39,0-9.75,4.9-10.09,11.07l19,6.3A13.23,13.23,0,0,0,384.1,228.69Z"/>
          <path class="cls-23" d="M379.26,227.44c0,.4-.63.73-1.42.73s-1.43-.33-1.43-.73.64-.74,1.43-.74S379.26,227,379.26,227.44Z"/>
          <path class="cls-23" d="M378.64,229.84c0,.21-.41.31-.82.21s-.7-.33-.66-.54.41-.3.82-.21S378.69,229.63,378.64,229.84Z"/>
        </g>
        <path class="cls-30" d="M389.91,186.68s-15-11.76-27-5.3C362.91,181.38,372.6,170.3,389.91,186.68Z"/>
      </g>
      <g>
        <path class="cls-39" d="M395.43,202.34s-16.8-9.18-36.91-9.77c0,0-6.65-16.4-5.27-19.72s7.23,3.12,7.23,3.12,2.12-7,5.45-6.83-2,5.86-2,5.86,7.56-4.49,10.83-1.76-3.18,2.54-3.18,2.54,13.48,1.36,13.48,3.71-3.33,2.15-3.33,2.15,11.91,4.88,13.68,8.79S395.43,202.34,395.43,202.34Z"/>
        <path class="cls-11" d="M394.06,200s-16.8-9.18-36.91-9.77c0,0-6.64-16.41-5.28-19.72s7.24,3.12,7.24,3.12,2.12-7,5.45-6.84-2,5.86-2,5.86,7.55-4.49,10.82-1.75-3.17,2.53-3.17,2.53,13.47,1.37,13.47,3.71-3.33,2.15-3.33,2.15,11.92,4.89,13.68,8.79S394.06,200,394.06,200Z"/>
        <path class="cls-40" d="M394.06,200s-16.8-9.18-36.91-9.77c0,0-6.64-16.41-5.28-19.72s7.24,3.12,7.24,3.12,2.12-7,5.45-6.84-2,5.86-2,5.86,7.55-4.49,10.82-1.75-3.17,2.53-3.17,2.53,13.47,1.37,13.47,3.71-3.33,2.15-3.33,2.15,11.92,4.89,13.68,8.79S394.06,200,394.06,200Z"/>
        <path class="cls-41" d="M394.06,200s-16.8-9.18-36.91-9.77c0,0-6.64-16.41-5.28-19.72s7.24,3.12,7.24,3.12,2.12-7,5.45-6.84-2,5.86-2,5.86,7.55-4.49,10.82-1.75-3.17,2.53-3.17,2.53,13.47,1.37,13.47,3.71-3.33,2.15-3.33,2.15,11.92,4.89,13.68,8.79S394.06,200,394.06,200Z"/>
      </g>
      <path class="cls-5" d="M561.78,184.89c1,3.74,1.86,6.74,5.93,8.39,1.28.52,1.55,3.65,2.19,5.61.43,1.29.28,3.08,1.12,3.89,6.27,6,7.4,10.78,2.43,17.82-6.89,9.74-14.24,19.2-21.87,28.38-6.87,8.26-14.28,16.18-26.42,13.44-7.6,13.13-13.61,1-20.19-.7-3.51,4.1-6.82,8.25-10.44,12.11s-7.7,7.32-11.33,11.19-7.76,4.76-12.21,2.7q-12.17-5.61-23.92-12.07a23.24,23.24,0,0,1-10.36-10.89c-1.53-3.28-1.94-5.46,0-8,2.35-3,5.68-2.8,8.6-1.2,6.54,3.59,12.89,7.55,19.34,11.32,2.15,1.25,4.26,3,6.58,3.39,2.05.39,5,0,6.46-1.24,4.41-4,8-8.86,12.44-12.87,4.12-3.74,4.93-6.7,1.2-11.5-4.39-5.66-3.39-9.34,1.47-12.93-.06-3.62-.65-7-.05-10.14,1.11-5.83,3-11.52,4.44-17.29,1-3.76,2.63-7,6.83-7.68s6.2,2.37,8,5.51c.2.36.75.52,1.09.74,7-7.39,13.86-14.87,21-22,6.24-6.24,10.22-6.14,16.62-.36C556.28,178.46,560.44,179.81,561.78,184.89Zm-1.09,29.3a32.91,32.91,0,0,1-8.89,7.16c4-4.58,8.18-9,11.94-13.8a16.41,16.41,0,0,0,3.41-7.32c.24-1.6-1.26-4.5-2.64-5s-4.06.78-5.33,2.1c-3.68,3.82-6.9,8.08-10.38,12.09-1.16,1.33-2.56,2.46-3.84,3.67l-1-.86c5-5.78,9.85-11.63,14.92-17.32,3-3.33,1.78-6.79-.15-9.54-1-1.48-4-2-6.2-2.12-1-.07-2.38,1.5-3.3,2.57-4.63,5.43-9.15,11-13.76,16.43a3,3,0,0,1-3,.95c4.39-5.22,8.86-10.38,13.13-15.69,1.34-1.67,4.78-3,2-6-2.57-2.88-5.78-2.91-8.44-.56-4.46,4-8.55,8.33-12.77,12.55-4,4-8.27,7.75-11.76,12.14-1.9,2.4-2.4,5.91-3.73,9.44a17.43,17.43,0,0,1-.85-3.38c-.08-1.31.71-2.89.22-3.91-1.35-2.79-2.74-7-4.92-7.62-3.83-1-4.45,3.46-5.32,6.39-1.4,4.76-3.06,9.51-3.73,14.39a30.18,30.18,0,0,0,1,10.61c.64,2.8,2.24,5.38,3.42,8.06l-1.34,1-6-7.13c-.3,3-1.36,5.49-.57,7a58.37,58.37,0,0,0,23.44,24.41c2.89,1.61,3.57,1.09,5.89-2.55l-3.46-2.25.21-.9a38.94,38.94,0,0,1,5.73.39c7.2,1.55,13.21-.65,18-5.91,6.16-6.74,12.18-13.61,18-20.65a131.25,131.25,0,0,0,9.89-13.76c3.82-6.12,3.24-9.62-2-14.48C565.77,208.09,563.36,211.26,560.69,214.19Z"/>
      <path class="cls-3" d="M570.52,219.27A131.25,131.25,0,0,1,560.63,233c-5.8,7-11.82,13.91-18,20.65-4.81,5.26-10.82,7.46-18,5.91a38.94,38.94,0,0,0-5.73-.39l-.21.9,3.46,2.25c-2.32,3.64-3,4.16-5.89,2.55a58.37,58.37,0,0,1-23.44-24.41c-.79-1.5.27-4,.57-7l6,7.13,1.34-1c-1.18-2.68-2.78-5.26-3.42-8.06a30.18,30.18,0,0,1-1-10.61c.67-4.88,2.33-9.63,3.73-14.39.87-2.93,1.49-7.39,5.32-6.39,2.18.57,3.57,4.83,4.92,7.62.49,1-.3,2.6-.22,3.91a17.43,17.43,0,0,0,.85,3.38c1.33-3.53,1.83-7,3.73-9.44,3.49-4.39,7.78-8.15,11.76-12.14,4.22-4.22,8.31-8.6,12.77-12.55,2.66-2.35,5.87-2.32,8.44.56,2.73,3.06-.71,4.36-2,6-4.27,5.31-8.74,10.47-13.13,15.69a3,3,0,0,0,3-.95c4.61-5.47,9.13-11,13.76-16.43.92-1.07,2.26-2.64,3.3-2.57,2.16.16,5.16.64,6.2,2.12,1.93,2.75,3.13,6.21.15,9.54-5.07,5.69-10,11.54-14.92,17.32l1,.86c1.28-1.21,2.68-2.34,3.84-3.67,3.48-4,6.7-8.27,10.38-12.09,1.27-1.32,4-2.6,5.33-2.1s2.88,3.4,2.64,5a16.41,16.41,0,0,1-3.41,7.32c-3.76,4.77-7.94,9.22-11.94,13.8a32.91,32.91,0,0,0,8.89-7.16c2.67-2.93,5.08-6.1,7.81-9.4C573.76,209.65,574.34,213.15,570.52,219.27Zm-45.87-10.83-1.47,1.23,23.45,27.42,1.22-1Zm-5.43,31.69c5.39-7.13,3.3-16.11-4.52-19C520.22,226.57,522.16,232.73,519.22,240.13Z"/>
      <path class="cls-5" d="M292.82,453.41c-10.18-2.34-11.08-5.25-5.56-16.43a25.8,25.8,0,0,1-3.07-2.32c-14.95-14.77-19.25-32.22-12.61-52.14a74.82,74.82,0,0,1,17.14-27.85,34,34,0,0,1,5.76-4.74c2.06-1.38,4.87-2.27,6.41,0a7.93,7.93,0,0,1,.66,6.47c-1.31,3.15-3.6,5.95-5.69,8.73-6,8-11.74,16.13-14.2,26.11-3.52,14.22,1.85,29.43,13.57,37.5.64.44,1.93.07,2.88-.11,3.62-.69,7.22-2,10.82-2,2.11,0,4.36,2,6.26,3.4,2.1,1.6,3.75,3.77,5.81,5.44,4.16,3.35,8.74,6.22,12.61,9.87s4.8,8.08,3.38,13.37c-4,14.71-17,25.33-33.33,26-6,.26-12.16-.75-18.21-1.5-3.41-.42-5.33-2.47-5.77-6.24-1.2-10.43,1.31-15.87,10.28-21.23A26.56,26.56,0,0,0,292.82,453.41Zm21.42-17.53c.12-2.43-.35-5.6-4.06-6.66a14.35,14.35,0,0,0-12,1.67c.85,3.31,6.8,4.16,3.18,8.52-1.2,1.43-3.3,3.15-4.86,3-2.7-.22-5.3-1.76-8.82-3.07-.46,2.63-1.94,5.73-1.21,8.19,1.38,4.67,6.29,2,9.65,2.92-.95,1.18-1.68,2.09-2.75,3.44,14.7-.64,19.62.9,19.91,5.92a1,1,0,0,1-.35,0c-.55-.29-1.09-.58-1.62-.91-7.19-4.46-14.46-4-21.7-.21s-8.81,10.22-8.42,17.77c.15,2.88,1.49,4.08,3.9,4.56,7.51,1.51,15,2.35,22.68.91,14.37-2.69,24.59-12.19,27.11-25.95.38-2.08,0-5.18-1.3-6.51a153,153,0,0,0-14.07-12.07C318.27,436.44,316.31,436.44,314.24,435.88Z"/>
      <path class="cls-5" d="M359.85,447c-8.28-2.66-10.45-8.86-5.47-16.14,1.24-1.82,1.11-2.87,0-4.56-4.84-7.49-8.69-15.41-10.18-24.34-1.88-11.29,1-21.75,6.65-31.23,3.72-6.22,8.75-11.74,13.69-17.12,2-2.2,5.58-4.62,8.59-1.63s.16,6.06-1.59,8.65c-2.08,3.1-4.56,5.94-6.86,8.9-13.13,17-12.48,35.85,1,51.33,4.75-.17,8.78-.71,12.72-.34,3.56.33,5.47,3,6.32,6.53a5.49,5.49,0,0,0,2.64,3.4c13.52,5.82,17.66,23.29,16.82,33.07a14.39,14.39,0,0,1-1.16,3.17c-1.49-7.3-2.32-14.15-4.35-20.63-2.18-7-7.37-11.75-14.12-14.61l-4,3.82-.84-.47c.84-3.68,4.85-7.63.28-11-3.73-2.71-8-2.2-12.37-.17,1.88,4.21,5.7,9,.1,12.48-5.16,3.17-7.3-2.78-10.46-5.25-2.92,2.74-4,6.87-2.68,10.13,1.08,2.72,1.27,2.77,11.73,3l-5,4.74.67,1c6.22.17,13-2.05,18.11,3.06l-.3,1.2c-1.12-.33-2.24-.68-3.37-1-7.91-2.18-15.37-1.25-22.18,3.43-6.15,4.23-8.63,10.25-7.58,17.54a6.28,6.28,0,0,0,3,3.75c15.75,8.92,37.12,5.75,49.76-7.21.67-.7,1.41-1.32,2.12-2l1,.63c-1.05,1.73-1.81,3.76-3.2,5.15-12,12-36.64,14.42-51,5.25-4.43-2.81-4-7.34-3.64-11.4.76-7.76,5.52-13,12.46-16.08C359.49,451,360.45,449.68,359.85,447Z"/>
      <path class="cls-20" d="M314.24,435.88c2.07.56,4,.56,5.24,1.51a153,153,0,0,1,14.07,12.07c1.33,1.33,1.68,4.43,1.3,6.51-2.52,13.76-12.74,23.26-27.11,25.95-7.66,1.44-15.17.6-22.68-.91-2.41-.48-3.75-1.68-3.9-4.56-.39-7.55,1.24-14,8.42-17.77s14.51-4.25,21.7.21c.53.33,1.07.62,1.62.91a1,1,0,0,0,.35,0c-.29-5-5.21-6.56-19.91-5.92,1.07-1.35,1.8-2.26,2.75-3.44-3.36-.9-8.27,1.75-9.65-2.92-.73-2.46.75-5.56,1.21-8.19,3.52,1.31,6.12,2.85,8.82,3.07,1.56.12,3.66-1.6,4.86-3,3.62-4.36-2.33-5.21-3.18-8.52a14.35,14.35,0,0,1,12-1.67C313.89,430.28,314.36,433.45,314.24,435.88Z"/>
      <path class="cls-20" d="M386.72,436.76c1.92,1,3.83,1.39,4.81,2.58a150.46,150.46,0,0,1,11.26,14.72c1,1.58.73,4.69-.08,6.64-5.33,12.93-17.3,20.11-31.91,19.75-7.8-.19-15-2.57-22-5.6-2.26-1-3.32-2.43-2.87-5.28,1.19-7.46,4.12-13.4,11.94-15.63s15.07-1.14,21.18,4.72c.44.43.92.83,1.39,1.23.08.07.22.07.33.11.77-5-3.72-7.5-18.24-9.93l3.4-2.8c-3.09-1.57-8.45,0-8.83-4.86-.2-2.55,1.9-5.28,2.89-7.76,3.17,2,5.39,4.07,8,4.84,1.5.44,3.91-.8,5.38-2,4.45-3.51-1.19-5.58-1.33-9a14.35,14.35,0,0,1,12.11.87C387.54,431.22,387.35,434.42,386.72,436.76Z"/>
    </g>
    <g id="Layer_4" data-name="Layer 4">
      <path class="cls-2" d="M263.89,309.06c-4.26,1.82-3.33,7.91-7.61,5.86-3.36-1.62-2.22-5.44-1-8.53,1.88-4.65,5.76-8.34,13.74-12.75,2.72,2.83-4.06,8.31,2.13,9.66,3.58.77,3.86-3.66,5.5-5.77,13.1-16.85,32.85-23.19,53.19-16.53,3.1,1,5.46,2.09,8.9.59,18.49-8.08,47.41,1.57,58.72,19.55,3.07,4.88,5.21,9.32,12.48,5.47,8.14-4.31,8.42-3.8,2-17.42,8.28,1.33,17.44,11.4,17.19,19,0,1.4,0,4.1-2,3.23-9.69-4.09-15.3,6.52-23.9,6.23-3.41-.11-5.61,2.24-7.46,5.11-18.07,28-45.58,32.41-75.44,28.68-17.81-2.22-33.58-9.42-43.06-26.34C273.83,318.91,265,317.33,263.89,309.06Z"/>
      <path class="cls-3" d="M332.8,330.42A57.66,57.66,0,0,1,294.62,321a25.92,25.92,0,0,1-8.8-9.45c-2.95-5.51-1.79-8.23,4.67-8,31.76,1.19,63.49,3.29,95.32,2.42,7.67-.21,5.16,4,2.28,7.3-10.06,11.54-23.7,15.45-38.18,17.09C344.8,330.9,339.58,330.42,332.8,330.42Z"/>
      <path class="cls-4" d="M382.34,309.6C369,321.26,353.91,325,337,320.38c-2.34-.63-4.64-1.61-4.32-4.68.22-2,2-2.42,3.56-2.29C351.85,314.79,366.84,310,382.34,309.6Z"/>
    </g>
  </g>
</svg>
